<?xml version="1.0" encoding="utf-8"?>
<!-- Generator: Adobe Illustrator 20.0.0, SVG Export Plug-In . SVG Version: 6.00 Build 0)  -->
<svg version="1.1" id="Layer_1" xmlns="http://www.w3.org/2000/svg" xmlns:xlink="http://www.w3.org/1999/xlink" x="0px" y="0px"
	 viewBox="0 0 1440 757.5" style="enable-background:new 0 0 1440 757.5;" xml:space="preserve">
<style type="text/css">
	.st0{fill:#628FA3;}
	.st1{fill:#4C738F;}
	.st2{fill:#578297;}
	.st3{fill:#4B748C;}
	.st4{fill:#507991;}
	.st5{fill:#4E778F;}
	.st6{fill:#5A869C;}
	.st7{fill:#6B98AE;}
	.st8{fill:#537D94;}
	.st9{fill:#9EC6E6;}
	.st10{fill:#7BA7C0;}
	.st11{fill:#5C899D;}
	.st12{fill:#BAD9F1;}
	.st13{fill:#8AB5D2;}
	.st14{fill:#E0EEF8;}
</style>
<g>
	<path class="st0" d="M1440.8,710.3c0,1.3,0,2.5,0,3.8c-8.3,0.3-16.7,0-25,0.6c-8.3,0.6-16.7-0.1-25-0.3c-12-0.4-24.1-0.3-36.2-0.3
		c-24.2,0-48.4,1.4-72.6,0.9c-6.4-0.1-12.7,0-19.1,0c-3,0-4.7,1.3-5,4.3c-0.3,2.8-1.7,4.2-4.7,4c-2.6-0.2-5.3-0.2-7.7,1
		c-1,0.5-2.4,0.9-0.9,2.4c0.6,0.6,1.7,1,1,2c-0.7,1-1.8,0.4-2.7,0.2c-2.8-0.6-5.6-0.9-8.2,1.1c-1.2,1-2.8,0.9-4.3,0.7
		c-5.4-0.7-10.8-1.7-16.2-2.1c-6.1-0.4-12.3,1-18.2,0.3c-6.3-0.7-11.5,3.9-17.6,2c-0.3-0.1-0.9,0.4-1.2,0.8
		c-1.1,1.3-2.6,1.3-4.1,1.2c-4.7-0.4-9.4-1.5-14.1-1.1c-11.9,0.9-23.9-0.8-35.7,0.4c-6,0.6-10-2-12.8-7c-0.6-1.1-1.3-1.6-2.3-1.3
		c-5.5,1.6-10.9-0.4-16.3-0.2c-10.4,0.4-20.9,0.5-31.3,1.4c-6.3,0.5-12.9,1.7-19.1-1.1c-1-0.4-2.1-0.2-2.6,0.8c-1,2.2-2.9,1.9-4.8,2
		c-4.9,0.3-9.7-0.3-14.2-2.6c-1.4-0.7-2.9-0.4-4.4-0.4c-0.6,0-1.4,0.1-1.4,0.9c0,0.7,0.6,1.1,1.2,1.2c1.7,0.4,4.6-0.1,4.6,1.9
		c0,2.2-3.5,0.2-4.7,1.9c-2.2,0-4.5,0-6.7,0c-5.4,0.1-10.8,0.2-16.2-1c-2.2-0.5-4.3-1.1-6.4,0.3c-2.6,0.3-5-0.4-7.5-0.7
		c-2,0.3-4.2-0.8-6,0.8c-1.5,0.2-2.9,1-4.5,0.7c-2.3-2.4-4.9-2.1-6.3,0.7c-0.5,1-0.5,3-1.9,2.8c-5.2-0.7-10.3,1.1-15.4,0
		c-2.7-0.5-5.3,0-7.8,1c-2,0-4,0-6,0c-1.5-0.7-2.9-1.1-3.2-3.4c-0.4-2.9-5.8-3.5-8-1.1c-2.6-0.1-5.2-0.1-7.8-0.6
		c-4.3-0.7-8.7-1.2-13-0.8c-6.7,0.5-13.4,0.5-20.1,0.3c-8.1-0.2-16.2,0.5-24.3,0.7c-13.3,0.3-26.6,0.1-39.8,1.9
		c-1.2-1.2-1.9-0.8-2.3,0.7c-2.7,0-5.5,0-8.2,0c-0.5-0.7-1.3-0.6-2-0.8c-3.8-0.9-7.9-0.2-11.5-2.2c-4,0-8,0-12,0
		c-5.9-1.3-11.9-1.6-17.6,0.3c-5.6,1.8-11.3,2.8-17.2,2.7c-7.7-0.1-15.3-0.5-23-0.7c-0.7,0-1.5,0-2.2,0c-1.9,0.4-3-1.5-4.9-1.5
		c-10.4-0.1-20.8-0.7-31.2-1.2c-20-0.9-40.1-1-60.1,1.2c-10.6,1.2-20.9-2-31.6-1.2c-8.2,0.6-16.6-0.9-24.9-1.1
		c-3.5-0.1-7.5,0.5-10.3-1.7c-1.8-1.4-3.2-2-5.2-1.9c-9.2,0.3-18.4-0.2-27.6,0.6c-7.5,0.6-15.1,0-22.7-0.4
		c-10.7-0.5-21.2-2-31.9-2.7c-2.7-0.2-5.7,0.2-8.3-1.3c0.3-0.5,1-1.1,1-1.5c-0.8-4.9,2.7-3.7,5.3-3.7c1.2,0,2.5,0,3.7,0
		c23.1,0,46.2,0,69.4,0c1.5,0,3.8-0.7,4.3,1.2c0.7,2.9,2.6,2.5,4.5,2.5c1.7,0,3.5-0.2,5.2,0.1c6.4,1.3,12.4,0.5,18.6-1.9
		c4-1.6,8.5-2.9,12.6-2.5c8.8,0.9,17.5,0.2,26.3-0.2c2.7-0.1,5.5-0.5,8.1,0.6c2.6,1.1,5.5,1.3,8.1,0.7c8.7-2.1,17.5-0.3,26.3-1.3
		c6.7-0.7,13.4,0.4,20.1,0.5c6.8,0.2,13.6-0.5,20.3-0.6c12.1-0.2,24.1,2,36.2,2.2c9.1,0.1,18.1,0,27.2,0c1.2,0,2.5-0.2,3.6,0.6
		c4,3.1,8.2,3.3,12.2,0.8c-1.1-1.4-3.2-0.9-4.5-2.1c0.3-0.3,0.4-0.7,0.5-0.6c8.3,0.5,16.8-3.1,25,1c1,0.5,2.5,0.3,3.7,0.3
		c14.4,0.2,28.7-2.1,43.1-1.5c5.6,0.2,11.1,0.3,16.7,0c4.5-0.3,8.9-2.1,13.6-1.4c11.2,1.6,22.5,0.1,33.6,0.9
		c6.8,0.5,13.7,0.4,20.4,1.6c11.4,2,22.9,1.8,34.4,0.8c1.2-0.1,2-0.3,2.8,1c1.2,1.9,9.3,2.5,11,1c0.3-0.2,0.7-0.7,0.6-0.9
		c-1.9-5.3,2.4-3.4,4.4-3.6c11.5-1.2,23,1.6,34.6,1c7.6-0.5,15.3,1.9,23,2.3c4.2,0.2,7.8,2,11.7,2.6c4.1,0.5,8.4-0.1,11-2.9
		c1.9-1.9,3.4-3,5.8-2.9c12.2,0.2,24.3,0.1,36.4,0.9c4,0.3,8.1,0.4,12.1,0.3c5.6,0,11,1.5,16.6,1.1c5.2-0.4,10.4-1.5,15.6-0.8
		c6.8,0.9,13.7,0.7,20.5,0.7c1.2,0,2.4,0.3,3.1,1.1c1.8,2,4.2,2.3,6.5,1.9c5.4-0.8,11.4,1.6,16.1-3c0.3-0.3,0.9-0.4,1.4-0.5
		c7.5-0.7,15.1-2.3,22.6-1.6c6.1,0.6,12.2,0.3,18.3,0.5c1.2,0,2.6,0.4,2.9-1.5c0.7,0,1.5,0,2.2,0c0.1,0.6,0.4,1.4,1,1.4
		c4.2,0,8.5,1,12.5-0.6c3.2-1.3,6.4-1.5,9.8-1.5c5.3-0.1,10.5-0.4,15.7-1.4c2.3,0,4.5,0,6.8,0c0.9,1,2.1,0.7,3.1,0.7
		c14.4,0,28.8,0,43.2,0c1.1,0,2.3,0.3,3.1-0.7c1.3,0,2.5,0,3.8,0c0.7,0.9,1.8,0.7,2.8,0.7c26.9,0,53.7,0,80.6,0
		c1.2,0,2.6,0.4,2.9-1.5C1429.3,710.3,1435,710.3,1440.8,710.3z M1195.8,720c0.9-0.2,2.6,0.5,2.4-1.3c-0.1-1.3-1.5-1.5-2.6-1.6
		c-1.1-0.1-2.1,0.3-2.2,1.5C1193.3,720.3,1194.8,719.9,1195.8,720z M638,718.4c0.1-1.1-0.6-1.3-1.4-1.3c-0.7,0-1.6-0.1-1.9,0.7
		c-0.3,0.9,0.3,1.4,1.2,1.4C636.8,719.2,637.7,719.4,638,718.4z"/>
	<path class="st0" d="M0.8,737.3c0-6.3,0-12.5,0-18.8c7.6-0.3,15.1,0.1,22.7,0.2c9.3,0.1,18.6-0.6,28,1.1c9.5,1.7,19.5,0.2,29.1-0.8
		c9.1-0.9,18-2.4,27.3-2c11,0.5,22,0.1,33,0.1c2.2,0,4.2,0,5.1,2.7c0.5,1.4,1.8,1.9,3.4,1.7c7.9-0.9,15.8-1.4,23.8-1.4
		c5.1,0,10.3,0.1,15.2-1c6.9-1.5,13.6-2.6,20.9-2.2c11.8,0.7,23.6-1.4,35.4,0.1c1.9,0.2,3.9,0.1,5.4,1.1c5.6,3.5,11.8,2.5,17.4,1.4
		c6.9-1.3,13.6-3.1,20.8-2.6c7.3,0.4,14.7-0.3,22-0.2c7.6,0,15.2,0.1,22.8,0.4c5.6,0.3,11.2,0.1,16.8,0.5c3.5,0.2,8.1,1.3,10.9-2.7
		c0.3,0,0.5,0,0.8,0c-0.1,1.5,0.6,2.1,2.1,2.3c4.9,0.7,9.8-0.3,14.6,0.1c5.4,0.5,10.7,0.3,16,0.6c1.3,0.1,3.4-0.8,3.6,0.9
		c0.3,2.2-2.1,0.8-3.1,1.5c-0.3,0.2-0.4,0.5-1,1.2c6,0.6,11.5,1.2,17,1.6c6,0.4,11.9-0.5,17.9,0.7c1.8,0.4,4.2,0.9,5.8-0.6
		c2.4-2.2,5.1-1.6,7.8-1.3c3.8,0.5,7.6,1.1,11.4,1.3c4.2,0.2,8.4,0.5,12.6,1c7.2,0.9,14.5,1.4,21.7,2.5c6.1,1,12.4,0.3,18.6,0.8
		c9.5,0.8,19.2,0.6,28.7,0.9c0.9,0,2.3-0.7,2.7,1c-5.3,1.9-10.7,1-16,1.2c-9.6,0-19.2,0.1-28.8-0.1c-3.7-0.1-7.4-1.5-11-1.1
		c-10.1,1.2-20,0.6-29.9-0.9c-0.7-0.1-1.5-0.1-2.2,0c-9,0.7-18,1.4-27,2.1c-6.9,0-13.9-0.4-20.8,1.1c-5.3,1.1-6.3,2.6-5,7.7
		c0.2,0.9-0.9,1.1-1.2,1.7c-2.2,0-4.5,0-6.7,0c-4.7-0.3-9.5-0.5-14.2-0.8c-0.1-0.6-0.2-1.3-1-1.4c-1-0.1-1.2,0.6-1.3,1.4
		c-0.5,0-1,0-1.5,0c-0.3-1.6-1-2-2.3-0.7c-4.2-0.6-8.5-0.9-12.7-0.8c-0.1-0.6-0.2-1.3-1-1.4c-1-0.1-1.2,0.6-1.3,1.4
		c-1.7,0-3.5,0-5.2,0c-1-2.1-2.6-2.2-4.5-1.5c-0.5,0-1,0-1.5,0c-1.2-1.1-1.4-0.2-1.5,0.7c-3.7-0.2-7.5-0.5-11.2-0.7
		c-0.8-1.1-2-0.6-3-0.7c-2.7,0-5.5,0-8.2,0c-0.5-0.8-1-0.8-1.5,0c-2.2-0.7-4.5-0.9-6.8-0.7c-0.8-1.1-2-0.6-3-0.7c-0.7,0-1.5,0-2.2,0
		c-2.1-0.4-4.2-0.8-6.3-1.2c6.6-2.4,13.5-1.5,20.7-2c-1.7-2.2-3.3-2.1-4.9-2.1c-4.7,0-9.5,0.3-14.2-0.1c-10.7-1-21.5-2.2-32.3-2.2
		c-4.3,0-8.7,0.7-13-0.6c-1-0.3-2,0-2.9,0.5c-0.7,0.4-1.5,0.6-1.6,1.4c-0.1,1,0.9,1,1.6,1.2c1.7,0.7,3.4,1.5,5.2,2
		c2.3,0.6,2.6,1.9,1.9,3.8c-2.6-0.4-5,0.9-7.5,0.8c-4.6,0.2-9-0.6-13.4-2.3c-2.9-1.1-5.4-3.3-8.7-3.8c-6.6-1.1-13.2-0.3-19.7-0.6
		c-3.4-0.2-7.1-2-9.8,1.9c-0.4,0.6-2.1,0.3-3.2,0.3c-7.4,0-14.7,0-22.1,0c-1.5,0-3.2,0.3-3.3,2.3c0,1.9,1.3,2.9,3.2,2.9
		c1.5,0.1,3-0.1,4.5,0c7.7,0.5,15.3-2.1,23,0c-0.2,2.3-1.9,2.2-3.6,2.3c-3.6,0.3-7.2-0.8-10.7,0.7c-1.5,0-3,0-4.5,0
		c-4.7,0.3-9.6-0.7-14.2,0.7c-1-2.6-3.6-1.2-5.3-2.2c-3.1-1.6-6.5-0.3-9.7-0.7c-3-0.8-6.1-0.9-9.2-0.7c-2.4,0.1-4.8,0-6.9-1.1
		c-1.2-0.6-3.8,0.1-3.5-1.8c0.2-1.5,2.7-1.2,4.1-1.6c0.3-0.1,0.7,0,1.1,0c7.9,0,15.8,0,23.8,0c0.8,0,1.8,0.4,2.7-1.7
		c-15.8,0.9-31.1-1.1-46.5-0.5c-5,0-10,0-15,0c-0.2-1.6-1.4-1.7-2.5-1.4c-2.4,0.7-5.1-1.7-7.3,0.7c-4.2,0-8.5,0-12.7,0
		c-0.2-1.3-1.1-1.5-2.2-1.5c-9.2-0.4-18.4,0.7-27.6,0.8c-1,0-1.6,0.4-1.8,1.5c-0.5,0-1,0-1.5,0c-14.6,0-29.2-0.2-43.8,1.2
		c0.3,1.1,1,1,1.6,1c8.9,0.1,17.9,0.1,26.8,0.4c1.5,0,4.3-0.3,4.3,1.5c0,1.7-2.5,2-4.3,2c-5.6,0-11.2,0-16.9,0
		c-3.8,0.1-7.5,1.2-11.2,0.7C4.3,737.3,2.5,737.3,0.8,737.3z M382,732.6c-3.5-0.4-7.1-1.4-10.9,1.1C375.3,735,378.8,735.2,382,732.6
		z"/>
	<path class="st1" d="M1272,758.3c-43,0-86,0-129,0c-3.2-3.2-7-1-10.6-1.2c-0.2,0-0.5,0.8-0.7,1.2c-2,0-4,0-6,0
		c-2.5-1.9-5.5-3.5-3.8-7.5c5.5-0.5,10.9,0.4,16.3,0.9c4.1,0.4,8.5-0.2,12.2,2.5c1.8,1.4,3.9,2.1,6.1,2.6c4,0.5,8-1,12-0.7
		c1.9,0.2,3.6-0.6,4.8-1.8c2.5-2.3,5.1-3.7,8.6-3.9c1.4,0,2.7-0.7,2.3-2.6c1.2-0.3,2.6,0.5,3.5-0.7c0.3-0.5-0.1-1-0.5-1.2
		c-1.4-0.5-2.2,0.2-3,1.9c-2.7,0.6-5.4,1.6-8.1-0.9c-1.4-1.3-2,0.3-2.3,1.6c-2,0-4,0-6,0c0.4-2.7-0.5-4.2-3.5-3.8
		c-1.8,0.2-3.6,0-5.5,0c-0.5,0-1,0-1.5,0c-0.3-2-2.2-1.6-3.5-2.3c-0.7-0.3-1.5-0.6-1.4-1.5c0.2-1,1.1-0.7,1.9-0.8
		c3.1-0.1,6.4,0.6,8.9-2.4c1-1.2,3.1-0.6,4.7-0.5c1.5,0.1,2.9,0.4,4.4,0.7c5.9,1.2,12,1.1,18,1.3c4.7,0.2,9.3,1.8,14.1,0.6
		c6.9-1.6,13.7-1.4,20.7-0.7c4.2,0.5,8.4,1.4,12.6,1c3-0.3,6.3,0.1,9-1.1c2.2-0.9,4.3-1.5,6.4-2.2c2.3-0.8,5.4,1.1,7-2
		c0.3-0.2,0.5-0.5,0.8-0.7c1.1,0.6,2.3,1.2,3.5,0.4c2.4-1.5,5-1.2,7.6-1.2c4.6,0,9.1,0,13.7,0c6,0.2,12-1.3,18-0.7
		c5,1.4,10.1,1,15.2,0.2c1.2-0.2,3.2,0.6,3.6-1.7c13.9,0.5,27.9-1.9,41.4,3.2c1.8,0.7,2.6,0.1,2.8-1.7c1-0.4,1.5-1.2,1.5-2.2
		c1,0,2,0,3,0c0.3,0.2,0.6,0.5,0.9,0.5c9.2-0.9,18.3-1.5,27.6-1.2c0.6,0,1.6-0.3,1.8,1.1c-3.9,1-8-0.4-11.8,1.4
		c5-0.2,9.9,1.4,14.9,1.2c2.1-0.1,4.3,0.6,5.9-1.4c1.7-2,3.9-2.5,6.4-2.4c2.4,0.1,4.7-0.3,7-0.5c3-0.2,6.2-1.8,9.1-0.2
		c2.6,1.5,5.2,1.4,7.9,1.4c0,8.4-0.1,16.8,0.1,25.1c0,2.2-0.5,2.7-2.7,2.7c-50.9-0.1-101.7-0.1-152.6-0.1c4-1.6,5.2-7,10.2-7.4
		c-2.5-1.3-5.1-0.6-7.6-0.8c-2.9-0.3-6.4,0.2-8.6-1.5c-4.7-3.8-9.1-5-14.2-1.1c-0.6,0.4-1.4,0.9-2,0.9c-1.5-0.1-3.1-0.7-3.2,1.7
		c-0.1,2.1,1.7,2,3,2.5C1266.4,753.8,1270.5,754,1272,758.3z M1331.2,736.1c4.3,0.7,8.1,0.2,11.9,0.4c1.1,0.1,2.6-0.4,3.2,0.6
		c2,3.3,5.8,3.4,8.4,5.2c3.9,2.7,7.7,2.3,11.6,2.3c1.5,0,3.9,1.1,3.9-1.9c-0.1-2.7-2.3-1.7-3.7-1.7c-2.7-0.1-5.4,0-7.8-1.3
		c0.1-1.5,4.3-3.3-0.1-3.8c-7.4-0.9-15-1.1-22.5-1.6C1334.5,734.2,1332.9,734,1331.2,736.1z"/>
	<path class="st2" d="M375,740.2c4.7,0.3,9.5,0.5,14.2,0.8c-0.5,1.6-1.8,2.2-3.2,2.8c-1.2,0.5-2.8,1.1-2.4,2.8
		c0.4,1.5,2,1.1,3.2,1.2c5.7,0.6,11.3-0.5,16.7-2.3c-0.1,0.4-0.2,0.7-0.3,1.1c-0.5,1-2.9,0.8-2.2,2.5c0.6,1.5,2.5,0.7,3.7,1
		c7.1,1.6,12.9-3,19.5-3.9c1.2-0.2,1-1.3,1-2.1c7.3-0.1,14.6-0.1,21.9,0.7c2.2,0.2,3.8-0.4,3.6-3c1.4-2.9,3.5-0.3,5.3-0.7
		c-0.9,2-0.3,3.2,1.9,3.6c0.9,0.2,2.1,0.3,2.3,1.5c0.1,1.2-0.8,2-1.7,2.7c-2.7,2.1-6,2.1-9.1,2.7c-1.6,0.3-3,0.3-3.2,2.3
		c-3.5,0.8-6.9,2.2-10.5,0.8c-2.4-2.6-11.8-3.1-14-0.7c-0.3,0.3-0.2,0.9-0.2,1.4c-4.2,0-8.4,0-12.5-1.4c-6.5-2.2-13-2.8-19.6,0.3
		c-2.1,1-4.8,0.6-7.6-0.2c1.5-1.5,3.3-0.4,4.4-2.1c-8.3-1.7-16.2-0.1-24.1-0.3c0,0.5,0,1,0,1.5c5.2,0,10.3,0,15.6,0
		c-0.3,1.3-0.8,1.4-1.3,1.4c-12.4,0.1-24.8,2.1-37.3,1.5c-3.3-0.2-6.9,1.5-9.6-2c-0.2-0.2-0.7-0.2-1.1-0.2
		c-4.8,0.2-9.7,0.1-14.6,0.3c-9.8,0.5-19.7,1.6-29.4-0.7c-8.4-2-16.7-1.8-24.9,0.5c-1.8,0.5-3.4,0.6-4.5-0.7
		c-4.4-5.1-10.1-2.7-15.1-3.2c-0.7,1.7,1.9,1.4,1.1,2.6c-0.8,1.1-2.2,1-3.4,1.2c-7.5,1.3-15.2,0-22.7,1.4c-1.4,0.3-3.2,0.3-4.4-0.3
		c-4.7-2.5-9.8-2.3-14.9-2.7c-4.2-0.3-7.7,2.2-11.6,2.2c-9.2,0.2-18.4,1-27.6,1.5c-11.1,0.7-22.2-0.7-33.3,0.9
		c-6.8,1-12.9-2.9-19.7-2.8c-2.6,0-5.4-0.3-8.1-0.6c-5-0.6-10.8-1.6-15.2,0.2c-9.1,3.8-18.2,1.8-27.3,2.5c-0.6,0-1.3,0-1.4-1
		c0.8-0.7,1.8-0.4,2.8-0.5c0.9-0.1,2.4,0.4,2.4-1c0.1-1.8-1.6-1.2-2.5-1.2c-5.3,0.1-10.7,0.5-16,0.5c-12.5,0.1-24.9,1-37.4,1
		c0-1.3,0-2.5,0-3.8c4.3-1,8.6-0.7,12.9-0.8c3.2,0,6.4,0.4,9.6-0.7c0.6,1,1.8,0.6,2.7,1c2.4,1.1,4.7,2.6,6.3-1.1
		c0.4-0.8,1.9-0.9,2.3-0.3c2.2,3,5.4,1.6,8.2,2c1.6,0.1,3.2-0.1,4.7-0.7c1.1-0.4,2.1-0.9,1.9-2.3c-0.3-1.4-1.4-1.6-2.6-1.6
		c-2.1,0-4.2,0-6.3,0c-2.5,0.2-4.9-0.7-7.3-1.1c-1.9-0.3-2.7-1.5-2.4-3.4c5.2-0.5,10.5,1.2,15.7,0c0.2,0.4,0.3,1.1,0.6,1.1
		c0.8,0.2,0.8-0.6,0.9-1.1c1.1-0.1,1.4-0.8,1.6-1.7c0.4-2.1,1.8-2.8,3.8-2.8c15.9,0,31.8,0.4,47.7-1.4c3-0.3,6-0.2,9,0
		c5.9,0.3,11.9-0.1,16.9,4.1c0.5,0.4,1.4,0.4,2.2,0.4c6.7,0.3,13.3,0.6,20,0.7c1.9,0,4.3,0.2,5.4-2.2c3.2,0.4,6.6-0.9,9.7,0.7
		c0.6,3.4,3.3,1.9,5.3,2.2c4.7-1.4,9.5-0.5,14.2-0.7c0.1,1.3-0.3,2.4-1.6,3.1c-1,0.5-2.2,1.2-1.8,2.5c0.5,1.5,2,1,3.2,1.2
		c6.3,0.7,12.2-2.4,18.4-1.5c0.7,0.1,1.7,0.1,1.6-1c-0.1-0.8-0.9-1.2-1.7-1.1c-3.6,0.1-7.1-1.2-10.7-0.8c-1.6,0.2-3.1,0-2.9-2.2
		c3.5-1.5,7.1-0.5,10.7-0.7c1.7-0.1,3.4,0,3.6-2.3c-0.5-1.6-0.9-3,1.7-3.3c1.6-0.2,3.1-0.5,4.7-0.2c6.8,1,13.7,1.7,20.5,2.8
		c3.8,0.7,7.8,0.3,11.3,3c3.3,2.6,9.6,0.5,11.3-3.1c2.5,0.1,4.9-1.2,7.5-0.8c2.7-0.2,5.4-0.7,8.1-0.7c8.6-0.1,17.2,0,25.8,0
		c2.3,0,4.3,0.2,6.4,1.5c2.1,1.3,4.3,1.3,5.4-1.5c0.7,0,1.5,0,2.2,0c0.5,2.1,1.7,1.8,3,0.7c2.3-0.1,4.6,0,6.8,0.7
		c0.5,0.8,1,0.8,1.5,0c2.7,0,5.5,0,8.2,0c0.5,2.1,1.7,1.8,3,0.7c3.7,0.2,7.5,0.5,11.2,0.7c0.6,0,1.2-0.1,1.5-0.7c0.5,0,1,0,1.5,0
		c1.3,1.1,2.9,1.4,4.5,1.5c1.7,0,3.5,0,5.2,0c0.8,0,1.5,0,2.3,0c4.3-0.2,8.5,0.2,12.7,0.8c0.5,0.9,1.4,0.7,2.3,0.7c0.5,0,1,0,1.5,0
		C373.5,740.2,374.3,740.2,375,740.2z M431,750.7c5-0.1,9.9-1.1,14.8-0.8c1,0.1,2.2,0,2.2-1.4c0-1.2-1.3-1.5-2.2-1.5
		c-6.2-0.1-12.4-0.1-18.7,0c-1.2,0-2.3,0.8-2.3,2c-0.1,1.5,1.3,1.6,2.4,1.6C428.5,750.8,429.7,750.7,431,750.7z M161.8,751.6
		c0,0.4,0,0.7,0,1.1c5.2,0,10.3,0,15.5,0c0-0.3,0-0.7,0-1C172.1,750.7,167,751.9,161.8,751.6z"/>
	<path class="st3" d="M1122,750.8c-1.7,4,1.3,5.6,3.8,7.5c-34.8,0-69.5,0-104.3,0c-0.1-0.8-0.4-1.4-1.3-1.4c-1-0.1-1.6,0.4-1.7,1.4
		c-86.3,0-172.5,0-258.8,0c0.3-2.1,2-1.3,3.3-1.5c0.7-0.1,1.7,0,1.7-1c0.1-1.3-1-1.2-1.8-1.2c-2,0-4,0-6,0c-0.8,0-2,0.3-2-1
		c0-1,1.1-1.3,2-1.2c1.8,0.1,3.4-0.4,5.1-0.9c2-0.6,4.1-1.8,6.1-1.2c8.5,2.4,17.2,2,26,2c3.9,0,6.7-1.1,10.2-4.5
		c-9.3,1.4-17.7-1.4-26.1-4.6c4-0.7,8-1.3,12-1.3c6.9,0,13.6-0.7,20.4-1.4c6.2-0.7,12.6-1,18.9-0.8c12.3,0.5,24.5,1.4,36.8,2.1
		c6.5,0,13,0,19.5,0c3.3,0,6.6,0.1,9.9,0c2-0.1,6.1,1.6,3.7-3.5c-0.3-0.6,0.4-1.6,0.6-2.4c4.5,0,9,0,13.5,0c0.8,0.2,1.5,0.5,2.3,0.7
		c2.2,2.1,4.6,2.9,7.5,1.5c0.8,0,1.5,0,2.3,0c0.7,0,1.5,0,2.2,0c0.1,0.6,0.3,1.3,1,1.4c7.2,1.3,14.2,3.5,21.5,3.8
		c7.6,0.3,15.2,0.1,22.8,0.1c1,0,2.5-0.4,2.8,0.4c1.4,3.6,4.5,2.5,7,2.5c3.7,0,7.5,0.4,11.8-0.4c-2.9-2.3-5.6-1.7-8.1-1.8
		c-0.8,0-2.1,0.4-2.1-0.8c-0.1-1.3,1.2-1.4,2.2-1.4c2.4,0,4.7,0,7.1,0c2.2,0,4.5,0,6.7,0c0.4,0.2,0.8,0.6,1.3,0.7
		c7.5,0.7,15.1,1.9,22.7,1.5c2.5-0.1,4.4,1,6.4,2.5c-4.5,0.7-8.9,0.6-13.9,0.2c3.7,3.8,8.4,1.8,12.4,3.7c-2,0.5-4,1.1-6.1,1.7
		c0.3,0.4,0.4,0.8,0.6,0.8c10.7,0.7,21.3,1.6,31.9-0.6c0.8-0.2,1.7-0.4,1.5-1.2c-1.1-4.1,1.9-3,3.9-3.3c1.1-0.1,2.5,0.6,3.5-0.9
		c-1.4-0.9-3.4-0.6-4.5-2c0.5-1.1,1.3-0.8,2-0.8c6.1,0.1,12.2,0,18.3-0.8c1.1-0.1,2.2,0,3-1.1c2.4-3.1,4.6-3.6,8.1-1.8
		c-0.4,1.1-3.9,1.2-1.8,2.2c2.5,1.2,4.1,4.7,7.7,3.7c0.8-0.2,2.4-0.5,2.5,0.8c0.1,1.5-1.5,1.3-2.6,1.4c-4.1,1.6-7,6.2-12.3,4.6
		c-0.5-0.1-0.9,0.3-1,0.9c-0.1,0.8,0.4,1.2,1.1,1.2c3.9,0,7.9,0,12.1,0c-0.9-1.8-2.9-1-2.7-2.7c0.1-1.2,1.2-0.9,2.1-1
		c6.3,0.7,12.5,1.1,18.7-1.3C1117.1,749.4,1119.8,749.3,1122,750.8z M946,747.2c-5.1-1.8-10.4-2-15.6-2.5
		c-11.1-0.9-22.1,1.5-33.2,1.5c-1,0-2.6-0.6-2.9,0.8c-0.4,1.7,1.4,1.9,2.4,2.3c7.1,2.8,14.4,0.6,21.5,1.4c0.3-1.8-1.9-1.5-1.3-2.8
		c0.5-1.1,1.6-1,2.6-1c0.9,0,1.7,0.1,2.6,0.2C930.1,748.3,938,747.5,946,747.2z M987.3,749.5c-5.6-0.8-11.2-2.2-16.8-2.4
		c-5.8-0.2-11.6-1-17.5-0.9c-1.3,0-3.5-1-3.8,0.9c-0.3,1.5,1.9,2,3.2,2.7c0.9,0.5,1.8,0.6,2.8,0.3c1.8-0.5,3.9-1.4,5.4-0.8
		c5.5,1.9,11.1,0.7,16.6,1.5C980.8,751.5,984,750.9,987.3,749.5z M1028.6,756c-0.1-0.7-0.6-0.7-1.1-0.7c-0.5,0-1.1,0-1.1,0.7
		c0,0.7,0.6,0.7,1.1,0.7C1028,756.7,1028.5,756.6,1028.6,756z"/>
	<path class="st4" d="M866.3,741.8c-12.3-0.7-24.5-1.7-36.8-2.1c-6.3-0.2-12.6,0.1-18.9,0.8c-6.8,0.8-13.6,1.4-20.4,1.4
		c-4,0-8,0.6-12,1.3c8.4,3.2,16.9,6,26.1,4.6c-3.4,3.4-6.3,4.5-10.2,4.5c-8.7,0-17.4,0.4-26-2c-2.1-0.6-4.1,0.6-6.1,1.2
		c-1.7,0.5-3.3,1-5.1,0.9c-0.9-0.1-2,0.2-2,1.2c0,1.3,1.2,1,2,1c2,0.1,4,0,6,0c0.8,0,1.9-0.1,1.8,1.2c-0.1,1-1,0.9-1.7,1
		c-1.2,0.2-2.9-0.6-3.3,1.5c-38.5,0-77,0-115.5,0c-0.2-2.2-4-3-2.3-6c12.4,0,12.4,0,14.7-1.9c-8.5-1.3-17,1-25.4-2.3
		c-4.2-1.7-9.5-0.4-14.3-1.1c-13.2-2-26.5-1.9-39.7-2.9c-11-0.8-21.8,2.1-32.8,1.5c-0.4-3-2.7-2.1-4.5-2.2
		c-11-0.6-21.9,0.8-32.9,0.9c-2.7,0-5.7,0.2-8.4,1.4c-4.8,1.8-10,1.1-14.9,2.7c-1.9,0.7-4.1,0.8-6.1,1.6c-3.7,1.4-6.2-1.7-9.2-2.7
		c-2.9-1-4.3-2.3-2.8-5.4c2.2,0.7,4.5,0.9,6.7,0.7c4.6,0,9.1-0.3,13.5-1.5c1,0,2,0,3,0c0.8,0,1.7,0.1,2.3-0.8c0.7,0,1.5,0,2.2,0
		c3.2-0.2,6.4,0.1,9.6-0.3c6-0.6,11.9-2.1,18-0.6c2.5,0.6,5,1.3,7.7,0.9c5.5-0.4,11,1.3,16.5,0.8c3.5,2.2,7-0.7,10.5,0
		c0.1,0.8,0.5,1.5,1.4,1.4c4-0.1,7.9,0.6,11.9-0.6c0.9-0.3,1.7-0.5,1.7-1.6c0.7,0,1.5,0,2.2,0c2,0.3,4,0.5,6,0.8
		c4.3-0.2,8.5,1,12.8,0.8c4.6-0.3,4.6-0.1,3-3.8c-0.1-0.2,0-0.5,0-0.7c1.2,0.2,2.5,0.5,3.7,0.7c1.9,0,3.7,0.1,5.6,0
		c1.9-0.1,4.1,0.2,4.9-2.2l0,0c3-0.2,6-0.5,9-0.7c0.3,0.2,0.5,0.5,0.8,0.7c1.6,2.5,4.3,1.8,6.5,2.2c1.4,0.3,2.9,0.1,3.8,2
		c-5.5,0.5-10.7,0.9-16.4,1.4c1.5,1.5,2.8,1.1,4,1.1c5.7,0,11.5,0,17.2,0c1.8,0,3.3,0.1,4.8,1.4c1.8,1.6,4.3,1.4,5.8-0.2
		c2.1-2.5,4.5-2.8,7.3-2.6c1.5,0,3,0,4.5,0c5.4-0.2,11,0.7,16.3-1.4c1.5-0.6,3.3-0.3,4.6,1.5c1.7,2.3,4.3,3.3,7.3,3
		c1.7-0.2,3.8-0.5,4.9,1c1.6,2.1,3.5,2,5.6,2c2.4,0,4.8,0.2,7.1-0.1c2.1-0.2,5.7,1.2,6-1.2c0.4-2.8-3.4-1.7-5.2-2.5
		c-0.7-0.3-1.5-0.2-1.5-1.3c0.1-0.8,0.8-0.8,1.4-1c3.2-1,6.4-1,9.6-0.4c5.8,1.1,11.6,2.4,17.7,2c4.2-0.3,8.5,0,12.7-0.1
		c1.1,0,2.3,0.1,3.3-0.4c3.6-1.7,7.3-1.3,11-0.6c2.1,0.4,4.2,0.4,5.6-1.1c2.3-2.3,4.9-2.6,7.9-2.5c3.1,0.1,6.2,0,9.4,0
		c3.2,0.2,6.5,1.5,9.7,0c1.3,2.4,2.5,2.4,3.8,0c2,0,4,0,6,0c4.5,0.7,8.8-0.4,13.2-0.6c5.3-0.2,10.5-1.8,15.8-0.3
		c3,0.8,5.9,0.1,7.7-2.9c2,0,4,0,6,0c3.5-0.3,6.9,0.2,10.3,1.1c1.7,0.5,2.9,0.1,4-1.1c1.3,0,2.5,0,3.8,0c6.9,1.5,13.9,2.9,21,3.7
		c0.2,0,0.5,0,0.7,0c-0.3,1.8-1.7,1.5-2.9,1.5c-3.5,0-6.9,0.1-10.4,0C867.1,739.4,866.1,739.9,866.3,741.8z M647.9,745
		c1.8,2.8,4.2,2.6,6.4,2.8c2.7,0.2,5.8-1.1,7.4,2.5c0.1,0.3,1.1,0.4,1.7,0.5c8.2,0.3,16.4,0.4,24.3-4.2
		C674.3,746,661.3,745.5,647.9,745z"/>
	<path class="st5" d="M642,752.3c-1.8,2.9,2,3.8,2.3,6c-15,0-30,0-45,0c0.7-4.4-2.4-4.1-5.1-4.1c-6.4-0.1-12.7,1.4-19.2,1.2
		c-9.2-0.3-18.4-0.2-27.5,1.3c-1.9,0.3-4.4,0.9-5.3-2c-0.4-1.2-1.7-0.9-2.6-0.9c-2.1,0-4.3,0.2-6.4-0.1c-3.6-0.4-4.8,1.2-4.4,4.5
		c-174.5,0-349,0-523.5,0.1c-3.8,0-5.3-0.8-4.5-4.6c12.5,0,24.9-0.9,37.4-1c5.3,0,10.7-0.4,16-0.5c1,0,2.6-0.6,2.5,1.2
		c-0.1,1.4-1.5,0.9-2.4,1c-0.9,0.1-2-0.2-2.8,0.5c0.1,1,0.8,1,1.4,1c9.1-0.6,18.2,1.3,27.3-2.5c4.4-1.8,10.1-0.7,15.2-0.2
		c2.7,0.3,5.5,0.7,8.1,0.6c6.7-0.1,12.8,3.8,19.7,2.8c11-1.5,22.2-0.2,33.3-0.9c9.2-0.5,18.3-1.3,27.6-1.5c3.9-0.1,7.5-2.6,11.6-2.2
		c5.1,0.4,10.1,0.3,14.9,2.7c1.2,0.6,3,0.5,4.4,0.3c7.5-1.4,15.2-0.1,22.7-1.4c1.2-0.2,2.7-0.1,3.4-1.2c0.8-1.2-1.7-0.9-1.1-2.6
		c5.1,0.6,10.7-1.9,15.1,3.2c1.1,1.3,2.7,1.2,4.5,0.7c8.2-2.3,16.5-2.5,24.9-0.5c9.7,2.3,19.6,1.2,29.4,0.7
		c4.9-0.3,9.7-0.1,14.6-0.3c0.4,0,0.9,0,1.1,0.2c2.6,3.5,6.3,1.8,9.6,2c12.5,0.6,24.8-1.5,37.3-1.5c0.5,0,1,0,1.3-1.4
		c-5.3,0-10.4,0-15.6,0c0-0.5,0-1,0-1.5c7.9,0.3,15.8-1.4,24.1,0.3c-1.1,1.7-2.9,0.6-4.4,2.1c2.8,0.8,5.6,1.2,7.6,0.2
		c6.6-3.1,13.1-2.5,19.6-0.3c4.2,1.4,8.3,1.4,12.5,1.4c4.7-0.9,9.5-0.8,14.2-0.7c3.6,1.4,7,0,10.5-0.8c4-0.2,7.9-0.2,11.9-0.5
		c4.1-0.3,9-2.3,12.4,2.3c0.6,0.9,2.1,0.5,3.2,0.3c6.9-1,13.8-1.3,20.7,0.5c1.1,0.3,2.4,0.7,2.7-0.9c0.4-2,1.8-1.8,3.1-1.8
		c2.2,0,4.5,0,6.7,0c2.8,0.7,5.6,1.8,8.5,2.2c6,0.7,9-5.1,14-6.7c1.3,0.8,2.8,0.8,4.3,0.8c5.6,0,11.1,0,16.7,0c2.3,0,5,0.6,5.3-3
		c5,0.2,10-1.3,15-0.7c0.8,1.2-3,2.9,0,3.6c2.3,0.5,5.1,1,7.5-0.6c8.5,0,17,1.3,25.5,0.8c0.3,2.2,0.4,4.6,3.8,3c0.5,0,1,0,1.5,0
		c0.6,3.4,3.3,1.9,5.3,2.2c1.8-0.2,3.8,0.6,5.5-0.7c2.9-2.1,6.1-2.5,9.6-2.4C633.5,752.3,637.8,752.3,642,752.3z"/>
	<path class="st6" d="M1371,730.5c-1,0-2,0-3,0c-1.1,0.3-2.8,0.3-1.5,2.2c-0.2,1.8-1,2.4-2.8,1.7c-13.5-5.1-27.6-2.6-41.4-3.2
		c-5.7-0.3-11.4,1.2-17.1,0.8c-0.5,0-1.1,0.5-1.6,0.7c-6-0.5-12,1-18,0.7c0-1.3,0.2-2.4,1.8-2.2c6.2,0.7,12-1.8,18.2-1.5
		c9.1,0.4,18.1-1.2,27.3-0.8c2.1,0.1,4.2-0.7,6.7-1.1c-0.7-1.2-1.5-1.6-2.3-1.7c-3.1-0.3-6.2-0.6-9.3-0.9
		c-6.9-0.6-13.7,0.8-20.5,0.8c-7,0-14,0.1-21,0.1c-8.5,0.1-16.5,3.5-24.9,3.6c-1.8,0-2.7,0.6-1.6,2.5c0.4,0.6,0.6,1.3,0.9,2
		c-0.3,0.2-0.5,0.5-0.8,0.7c-3.7-0.5-7.5-1.8-11-1.3c-7.2,1-14.2,1.2-21.5,0.7c-9.1-0.7-18.2-0.1-27.3-0.2c-2.5,0-4.8,1.4-7.4,0.5
		c-2.7-0.9-5.4-0.5-8.1-0.1c-3.9,0.6-7.9,1.2-11.8,0.9c-5.9-0.5-11.8-1.4-17.8-1.3c-5,0-10,0-15,0c-23.5,0-47,0-70.5,0
		c-3.9,0.3-7.9,0.5-11.8,0.7c-1.5,0.1-2.3,0.7-2.4,2.2c-1.3,1.3-2.8,1.4-4.5,0.8c-3.9-1.4-7.7-3.3-12-1.5c-4.8-0.3-9.9,1-14.2-2.2
		c0.1-1.5,1-2,2.4-2.3c10.6-2.4,21.5,0.1,32-2.1c0.1,0,0.3,0,0.4,0.1c2.8,2.4,6.7,2.5,9.4,1.6c4.1-1.3,9.2,3.2,12.4-2.3
		c0.4-0.6,1.4,0.1,2.1,0.1c8.4,0.4,16.9,0.2,25.3,1.8c1.3,0.2,2.7-0.1,2.8-1.7c0-1.4-1.3-1.8-2.4-1.9c-5.8-0.6-11.6-1.4-17.4-1.5
		c-14.8-0.3-29.6,0.3-44.4,1.4c-8,0.6-16.1,0.8-24.1,2.1c-2.6,0.4-5.5,2.3-8.2,0.2c1.2-1.7,4.7,0.3,4.7-1.9c0-2.1-2.9-1.6-4.6-1.9
		c-0.6-0.1-1.2-0.5-1.2-1.2c0-0.8,0.7-0.9,1.4-0.9c1.5,0,3-0.3,4.4,0.4c4.5,2.3,9.2,2.8,14.2,2.6c1.9-0.1,3.7,0.2,4.8-2
		c0.5-1,1.7-1.3,2.6-0.8c6.2,2.8,12.9,1.6,19.1,1.1c10.4-0.9,20.9-1,31.3-1.4c5.5-0.2,10.9,1.8,16.3,0.2c1-0.3,1.7,0.2,2.3,1.3
		c2.8,4.9,6.8,7.6,12.8,7c11.9-1.2,23.8,0.5,35.7-0.4c4.6-0.4,9.4,0.7,14.1,1.1c1.5,0.1,3,0.1,4.1-1.2c0.3-0.4,0.9-0.9,1.2-0.8
		c6.1,1.9,11.3-2.8,17.6-2c5.9,0.7,12.1-0.7,18.2-0.3c5.4,0.4,10.8,1.3,16.2,2.1c1.5,0.2,3.1,0.3,4.3-0.7c2.6-2,5.3-1.7,8.2-1.1
		c1,0.2,2,0.8,2.7-0.2c0.7-1-0.4-1.4-1-2c-1.4-1.4-0.1-1.9,0.9-2.4c2.5-1.2,5.1-1.2,7.7-1c3,0.3,4.4-1.1,4.7-4c0.3-3,2.1-4.3,5-4.3
		c6.4,0,12.7-0.1,19.1,0c24.2,0.5,48.4-0.9,72.6-0.9c12.1,0,24.1-0.1,36.2,0.3c8.3,0.3,16.7,0.9,25,0.3c8.4-0.6,16.7-0.3,25-0.6
		c0,1,0,2,0,3c-4.6,0.5-9.2-0.8-13.8-0.7c-10.6,0.2-21.2-0.3-31.8,0.6c-11.5,0.9-23.2,0.4-34.8,0.7c-25.1,0.7-50.2,0-75.3,0.9
		c-4.9,0.2-9.7,0.1-14.6,0c-1.8,0-3.4,0.3-5.2,0.7c-1.2,0.3-2.3,0.5-2.2,2c0.1,1.2,1.3,1.6,2.2,1.7c6.7,0.3,13.7,1.7,20.1-1.2
		c4.5-2,8.9-0.7,13.3-1.3c3.9-0.5,8,0.5,11.7,0c9.4-1.2,18.6,0.5,28,0.3c0.6,0,1.4,0.1,1.7,0.5c3.2,3.9,8.4,3.4,12.3,5.8
		c1.8,1.1,4.2,1.3,6.5,1.2c3.1-0.1,6.2,0,9.4-0.1C1370.1,728.2,1371.2,728.6,1371,730.5z"/>
	<path class="st7" d="M360.7,714.7c-2.8,4.1-7.4,2.9-10.9,2.7c-5.6-0.3-11.2-0.2-16.8-0.5c-7.6-0.3-15.2-0.4-22.8-0.4
		c-7.3,0-14.7,0.7-22,0.2c-7.2-0.4-13.9,1.3-20.8,2.6c-5.6,1.1-11.8,2.1-17.4-1.4c-1.6-1-3.6-0.8-5.4-1.1
		c-11.8-1.6-23.7,0.6-35.4-0.1c-7.2-0.5-14,0.7-20.9,2.2c-4.9,1-10.1,0.9-15.2,1c-8,0.1-15.9,0.5-23.8,1.4c-1.6,0.2-2.9-0.3-3.4-1.7
		c-0.9-2.6-2.9-2.7-5.1-2.7c-11,0-22,0.4-33-0.1c-9.2-0.4-18.2,1-27.3,2c-9.6,1-19.5,2.5-29.1,0.8c-9.4-1.7-18.7-1-28-1.1
		c-7.6-0.1-15.1-0.5-22.7-0.2c0-2.3,0-4.5,0-6.8c3.5,0.5,6.9-1.3,10.4-0.6c5.1,1,10.1,0.7,15.2,0.1c4.2-0.5,8.6-1.1,12.5,2
		c2.5,2,6.1,0.2,9.1,1.3c0.5,0.2,1.4-0.5,1.3-1.1c-0.6-4.2,2.6-3.2,4.6-3.2c16.1-0.1,32.2,0,48.3,0c1.4,0,2.7,0.4,4,0.4
		c5.9,0.2,11.5,1.9,17.4,1.9c21.1-0.2,42.2-0.1,63.3-0.1c2,0,4,0,5.8-1c1.1-0.7,2.4-0.5,3.7-0.3c5.4,0.9,10.8,1.3,16.3,1.4
		c7.7,0.2,15.5-0.8,23.1,0.7c0.9,0.2,2,0.3,2.7-0.7c1.8,0,3.5,0,5.3,0c1,1.1,2,1.1,3,0c0.7,0,1.5,0,2.2,0c7.5-1,15.1-0.7,22.7-0.7
		c0.7,0,1.6-0.1,2.1-0.5c2.1-1.5,4.4-1.2,6.5-0.8c12.5,2.4,25.2,2.2,37.8,2.1c1,0,1.9-0.5,2.9-0.7c4-0.3,8,1.2,12,0.7
		c1.4,1.1,2.9,1.6,4.8,1.6c6.4-0.1,12.7-0.1,19.1,0C358.2,714,359.6,713.5,360.7,714.7z"/>
	<path class="st8" d="M1371,730.5c0.2-1.9-0.9-2.3-2.5-2.3c-3.1,0.1-6.3-0.1-9.4,0.1c-2.3,0.1-4.8-0.1-6.5-1.2
		c-3.9-2.4-9.1-1.9-12.3-5.8c-0.3-0.4-1.1-0.5-1.7-0.5c-9.3,0.1-18.5-1.5-28-0.3c-3.7,0.5-7.9-0.5-11.7,0c-4.4,0.6-8.8-0.8-13.3,1.3
		c-6.4,2.8-13.3,1.5-20.1,1.2c-0.9,0-2.1-0.5-2.2-1.7c-0.1-1.4,1-1.7,2.2-2c1.7-0.4,3.4-0.8,5.2-0.7c4.9,0.1,9.8,0.2,14.6,0
		c25.1-0.9,50.2-0.2,75.3-0.9c11.6-0.3,23.2,0.3,34.8-0.7c10.6-0.9,21.2-0.3,31.8-0.6c4.6-0.1,9.1,1.2,13.8,0.7c0,4.5,0,9,0,13.5
		c-2.7,0-5.3,0.1-7.9-1.4c-2.9-1.6-6.1,0-9.1,0.2c-2.3,0.1-4.7,0.6-7,0.5c-2.5-0.1-4.7,0.4-6.4,2.4c-1.6,2-3.9,1.3-5.9,1.4
		c-5,0.2-9.8-1.4-14.9-1.2c3.8-1.7,7.9-0.4,11.8-1.4c-0.3-1.4-1.2-1.1-1.8-1.1c-9.2-0.3-18.4,0.4-27.6,1.2
		C1371.6,731,1371.3,730.7,1371,730.5z"/>
	<path class="st9" d="M1122.1,703.6c36.5,0,73-1.4,109.4,0.4c34.9,1.6,69.8,0.5,104.6,1c34.9,0.5,69.7,0.1,104.6,0.1c0,1,0,2,0,3
		c-63.2,0-126.5,0-189.7,0c-2.4,0-4.7,0.2-7.1,0.5c-2.9,0.3-5.9,1-8.7-0.5c-0.6-2.4-2.6-1.4-4-1.4c-18.4-0.1-36.8,0.1-55.3-0.2
		c-3.6-0.1-6.7,1.6-10.1,1.6c-12.9,0.1-25.7,0-38.6,0c-2.7,0-4.9-0.9-6.9-2.8C1121.3,705,1122,704.6,1122.1,703.6z"/>
	<path class="st10" d="M238.5,712.5c-0.7,1-1.8,0.9-2.7,0.7c-7.7-1.4-15.4-0.5-23.1-0.7c-5.5-0.1-10.9-0.6-16.3-1.4
		c-1.2-0.2-2.5-0.3-3.7,0.3c-1.8,1.1-3.8,1.1-5.8,1c-21.1,0-42.2-0.1-63.3,0.1c-5.9,0-11.5-1.7-17.4-1.9c-1.3,0-2.7-0.4-4-0.4
		c-16.1,0-32.2,0-48.3,0c-2.1,0-5.2-1-4.6,3.2c0.1,0.6-0.8,1.3-1.3,1.1c-3-1.2-6.6,0.6-9.1-1.3c-3.9-3.1-8.3-2.5-12.5-2
		c-5.1,0.6-10.1,0.9-15.2-0.1c-3.5-0.7-6.9,1.1-10.4,0.6c0-0.8,0-1.5,0-2.3c13,0,25.9,0,38.9,0c1.3,0,2.8,0.5,3.9-0.7
		c0.8,0,1.5,0,2.3,0c1.2,1.2,2.6,1,3.8,0.2c1.4-1,2.8-1,4.3-1c37.1,0,74.2,0.1,111.3-0.1c2.9,0,3.4,2.6,5.4,2.9
		c2.2,0.3,2.6-3,5.7-2.9c19.4,0.3,38.7,0.2,58.1,0.2c1.3,0,4.7-1.3,2.4,2.6C235.9,711.8,238.2,711.5,238.5,712.5z"/>
	<path class="st10" d="M1235.3,708c2.8,1.5,5.9,0.9,8.7,0.5c2.4-0.3,4.7-0.5,7.1-0.5c63.2,0,126.5,0,189.7,0c0,0.8,0,1.5,0,2.3
		c-5.7,0-11.5,0-17.2,0c-27.6,0-55.2,0-82.8,0c-1.2,0-2.5-0.4-3.5,0.8c-1.3,0-2.5,0-3.8,0c-0.8-1.1-2-0.8-3.1-0.8
		c-14.4,0-28.9,0-43.3,0c-1.1,0-2.3-0.3-3.1,0.8c-2.3,0-4.5,0-6.8,0c-0.5-0.7-1.2-0.8-2-0.8c-9.4,0-18.7,0-28.1,0
		c-0.9,0-1.8,0-2.4,0.7c-1.8,1.8-4.2,1.9-6.5,2.3c-0.7,0-1.5,0-2.2,0c-3.5-1.3-7.2-0.7-10.8-0.7c-5.6-0.1-11.7,1.3-16.7-0.4
		c-5.9-2-11.5-1.4-17.2-1.9c-2.3-0.2-4.4,0.3-6.3,1.5c-0.1-4.7,3.7-3.6,6.1-3.7C1205.8,707.9,1220.5,708,1235.3,708z"/>
	<path class="st8" d="M1272,758.3c-1.5-4.2-5.6-4.4-8.9-5.8c-1.4-0.6-3.1-0.4-3-2.5c0.1-2.4,1.7-1.8,3.2-1.7c0.7,0,1.4-0.5,2-0.9
		c5.1-3.9,9.5-2.6,14.2,1.1c2.2,1.7,5.7,1.2,8.6,1.5c2.5,0.2,5.1-0.5,7.6,0.8c-4.9,0.5-6.2,5.8-10.2,7.4
		C1281,758.3,1276.5,758.3,1272,758.3z"/>
	<path class="st4" d="M528.8,758.3c-0.5-3.4,0.8-4.9,4.4-4.5c2.1,0.2,4.2,0,6.4,0.1c1,0,2.2-0.3,2.6,0.9c1,2.9,3.4,2.3,5.3,2
		c9.1-1.5,18.3-1.6,27.5-1.3c6.5,0.2,12.8-1.3,19.2-1.2c2.6,0.1,5.8-0.2,5.1,4.1C575.8,758.3,552.3,758.3,528.8,758.3z"/>
	<path class="st11" d="M23.3,748.5c-3.1,1.1-6.4,0.7-9.6,0.7C9.4,749.3,5,749,0.8,750c0-4.3,0-8.5,0-12.8c1.8,0,3.5,0,5.3,0
		c-0.4,3.6,2.3,4,4.7,4.5c4,0.8,8.2,0.6,12,2.3c1.6,0.7,4.4-0.2,4.6,2.2C27.5,748.7,24.2,746.9,23.3,748.5z"/>
	<path class="st9" d="M45.8,708.8c-0.8,0-1.5,0-2.3,0c-1.1-1.2-2.6-0.7-3.9-0.7c-13,0-25.9,0-38.9,0c0-0.5,0-1,0-1.5c16,0,32,0,48,0
		C48.7,708.6,46.4,707.5,45.8,708.8z"/>
	<path class="st12" d="M48.8,706.5c-16,0-32,0-48,0c0-0.5,0-1,0-1.5c16.3,0.1,32.6,0.1,48.9,0.2C49.3,705.6,49.1,706.1,48.8,706.5z"
		/>
	<path class="st13" d="M0.8,708c13,0,25.9,0,38.9,0c1.3,0,2.8-0.5,3.9,0.7c-1.1,1.2-2.6,0.7-3.9,0.7c-13,0-25.9,0-38.9,0
		C0.8,709,0.8,708.5,0.8,708z"/>
	<path class="st4" d="M1131.8,758.3c0.2-0.4,0.5-1.2,0.7-1.2c3.5,0.2,7.4-2,10.6,1.2C1139.3,758.3,1135.5,758.3,1131.8,758.3z"/>
	<path class="st4" d="M1018.5,758.3c0.1-1,0.6-1.5,1.7-1.4c0.9,0.1,1.2,0.6,1.3,1.4C1020.5,758.3,1019.5,758.3,1018.5,758.3z"/>
	<path class="st13" d="M48.8,706.5c0.3-0.5,0.6-0.9,0.8-1.4c1.4,0,2.7-0.1,4.1-0.1c91.6,0,183.2,0,274.8,0c2,0,4,0.1,5.9,0.6
		c0,0.3,0,0.6,0,0.9c0.4,2.1,2.1,1.4,3.3,1.4c10.1,0,20.2,0,30.3,0c1.1,0,2.3,0.3,3.1-0.8c1.7-0.4,3.4-0.9,5.2-0.7
		c1,2.1,2.1,2.1,3,0c0-0.3,0-0.6,0-0.9c0.8,0,1.5,0.1,2.3,0.1c0.2,2.6,2.1,2.3,3.9,2.3c13.9,0,27.8,0,41.8,0c1.5,0,3.1,0.3,3.9-1.5
		c0-0.4,0.1-0.9,0.1-1.3c1.6,0,3.2-0.1,4.9-0.1c91.2,0,182.5,0,273.7,0c2.1,0,4.2,0.1,6.3,0.6c0,0.3,0,0.6-0.1,0.8
		c-0.6,0.3-0.7,0.9-0.7,1.5c0,0,0,0,0,0c-23.9,0-47.7,0-71.6-0.1c-3.7,0-7.1,0.6-10.5,2c-4.1,1.7-8.6,2.6-13.1,2.6
		c-0.3-0.2-0.5-0.5-0.8-0.7c-0.2-1.9,1.9-2,2.9-3.2c-1.6-0.9-3.1-0.5-4.5-0.6c-31.7,0-63.5-0.4-95.2,0.1c-31.6,0.5-63.2-0.8-94.9,1
		c-29.8,1.7-59.7,0.4-89.6,0.4c-2.3,0-4.6-0.1-5.2,3c-4,0.5-8-1-12-0.7c-0.1-1.9,2.4-1.6,2.7-3.8c-1.4,0-2.7,0-4,0
		c-20.4,0-40.7,0.2-61.1-0.1c-4.3-0.1-7.1,1.4-9.6,4.6c-0.7,0-1.5,0-2.2,0c-1-1-2-1-3,0c-1.8,0-3.5,0-5.3,0c-0.3-1-2.6-0.6-1.9-1.8
		c2.2-3.9-1.1-2.6-2.4-2.6c-19.4-0.1-38.7,0.1-58.1-0.2c-3.1-0.1-3.5,3.2-5.7,2.9c-1.9-0.2-2.5-2.9-5.4-2.9
		C128,708.1,90.9,708,53.8,708c-1.5,0-2.9,0-4.3,1c-1.1,0.8-2.6,1-3.8-0.2C46.4,707.5,48.7,708.6,48.8,706.5z"/>
	<path class="st13" d="M822.8,705.3c6.2-0.6,12.5-0.3,18.7-0.3c63.1,0,126.2,0,189.4,0.1c2.1,0,4.2,0.4,6.3,0.6
		c0.7,1.1,1.8,1.4,3,1.6c0.7,1.7,3.4,0.8,3.8,2.9c-1.7,0-1.9,2.4-3.7,2.3c-4.3-0.4-9.3,1.3-12.3-3.7c-0.5-0.9-1.5-0.7-2.4-0.7
		c-19.2,0-38.5-0.1-57.7,0.1c-2.1,0-5.5-0.8-6.5,2.8c0,0.2,0,0.5,0,0.7c-6.6,1.4-13-0.1-19.6-0.7c-4.6-0.4-8.6-3.1-13.3-3.1
		c-23.9-0.3-47.9,0.6-71.8-0.6c-9.6-0.5-19.1,1-28.7,0.8c-4.5-0.1-9.2,1.7-13.6,1.2c-9.6-1.1-19.1-0.3-28.7-1.1
		c-8.7-0.7-17.6-0.6-26.5,1c-4.7,0.9-9.8,0.7-14.8,0.4c-8.5-0.5-17.1-0.1-25.7-0.2c-1.2,0-2.9,0.6-3.3-1.5c0,0,0,0,0,0
		c13.5,0,27.1,0,40.6,0c1.3,0,3.1,0.8,3.7-1.4c0.3-0.4,0.6-0.9,0.9-1.3c9.9,0,19.9,0.1,29.8,0.1c0,2,1.4,2,2.8,2
		c8.9,0,17.8,0,26.7,0C821.4,707.3,822.8,707.3,822.8,705.3z"/>
	<path class="st13" d="M1235.3,708c-14.7,0-29.4-0.1-44.2,0.1c-2.4,0-6.2-1-6.1,3.7c-0.2,0.3-0.5,0.5-0.7,0.8
		c-4.5,0.4-9.1-0.9-13.5,0.7c-0.7,0-1.5,0-2.2,0.1c-0.6,0-1.2,0.1-1.5,0.7c-6.5,0.5-13-1.1-19.5-0.7c-1.1-1.2,3.7-3.5-0.4-3.6
		c-9-0.4-18-0.4-27,0.7c-1.2,0.1-2.5,0.6-2.6,2.1c-4.2,0-8.5,0-12.7,0c0-2.3,0.7-4.6-3.3-4.6c-15.9,0.2-31.9,0.1-47.8,0.1
		c-1,0-2.5-0.3-2.8,0.6c-1.2,3.1-3.4,1.8-5.4,1.7c0-1.6,0.1-3.3,0.1-4.9c15.7-0.1,31.4-0.7,47.2,0.3c4.5,0.3,9,0.1,13.5,0.1
		c1.1,1.3,1.8,1,2.4-0.4c1.9-0.1,3.9-0.2,5.8-0.3c2,0.1,4,0.2,5.9,0.3c1.9,1.8,4.2,2.8,6.9,2.8c12.9,0,25.7,0,38.6,0
		c3.4,0,6.5-1.7,10.1-1.6c18.4,0.3,36.8,0.1,55.3,0.2C1232.6,706.6,1234.6,705.5,1235.3,708z"/>
	<path class="st9" d="M431.3,706.5c-0.8,1.8-2.4,1.5-3.9,1.5c-13.9,0-27.8,0-41.8,0c-1.7,0-3.7,0.3-3.9-2.3c0.5,0,1-0.1,1.5-0.1
		c1.1,1.5,2.8,0.9,4.2,0.9C402,706.5,416.6,706.5,431.3,706.5z"/>
	<path class="st9" d="M822.8,705.3c0,2-1.5,1.9-2.9,1.9c-8.9,0-17.8,0-26.7,0c-1.4,0-2.8,0-2.8-2C801.2,704.8,812,704.8,822.8,705.3
		z"/>
	<path class="st12" d="M431.3,706.5c-14.6,0-29.2,0-43.9,0c-1.4,0-3,0.6-4.2-0.9c0.4-0.2,0.9-0.6,1.3-0.6c15.6,0,31.2,0.1,46.8,0.1
		C431.3,705.6,431.3,706.1,431.3,706.5z"/>
	<path class="st12" d="M376.5,706.6c-1.8-0.3-3.5,0.3-5.2,0.7c-0.9-1-2.1-0.7-3.1-0.7c-11.2,0-22.4,0-33.6,0c0-0.3,0-0.6,0-0.9
		c0.8-0.9,1.8-0.7,2.8-0.7c13.1,0,26.3,0,39.4,0c1,0,2-0.2,2.8,0.6c0,0.3,0,0.6,0,0.9C378.5,706.5,377.5,706.5,376.5,706.6z"/>
	<path class="st12" d="M760.6,705.2c-0.3,0.4-0.6,0.9-0.9,1.3c-14.5,0-29.1,0-43.6,0c0-0.3,0-0.6,0.1-0.8c0.6-0.2,1.1-0.7,1.7-0.7
		C732.2,705,746.4,705.1,760.6,705.2z"/>
	<path class="st9" d="M1045.6,705.3c0,1.6-0.1,3.3-0.1,4.9c-0.5,0-0.9,0-1.4-0.1c-0.4-2.1-3.1-1.3-3.8-2.9c0.5-1,2.3-0.6,2.3-2.1
		C1043.5,705.1,1044.6,705.2,1045.6,705.3z"/>
	<path class="st14" d="M1120.4,705.3c-2-0.1-4-0.2-5.9-0.3c2-3.2,5.1-0.8,7.6-1.4C1122,704.6,1121.3,705,1120.4,705.3z"/>
	<path class="st12" d="M1042.5,705.1c0,1.6-1.7,1.2-2.3,2.1c-1.2-0.2-2.3-0.4-3-1.6C1038.9,704.4,1040.8,705.2,1042.5,705.1z"/>
	<path class="st12" d="M1108.7,705.3c-0.6,1.4-1.4,1.7-2.4,0.4C1106.9,704.8,1107.8,705,1108.7,705.3z"/>
	<path class="st7" d="M1184.3,712.5c0.2-0.3,0.5-0.5,0.7-0.8c1.9-1.2,4-1.7,6.3-1.5c5.7,0.5,11.3-0.2,17.2,1.9
		c5,1.8,11.1,0.3,16.7,0.4c3.6,0.1,7.2-0.5,10.8,0.7c-0.3,1.8-1.7,1.5-2.9,1.5c-6.1-0.3-12.2,0.1-18.3-0.5
		c-7.5-0.8-15.1,0.9-22.6,1.6c-0.5,0-1.1,0.2-1.4,0.5c-4.7,4.6-10.7,2.2-16.1,3c-2.4,0.3-4.7,0.1-6.5-1.9c-0.7-0.8-1.9-1.1-3.1-1.1
		c-6.8,0-13.7,0.2-20.5-0.7c-5.2-0.7-10.4,0.4-15.6,0.8c-5.6,0.4-11-1.1-16.6-1.1c-4,0-8.1-0.1-12.1-0.3
		c-12.1-0.8-24.3-0.7-36.4-0.9c-2.5,0-3.9,1-5.8,2.9c-2.6,2.7-6.9,3.4-11,2.9c-4-0.5-7.6-2.4-11.7-2.6c-7.7-0.4-15.4-2.7-23-2.3
		c-11.6,0.7-23-2.2-34.6-1c-2,0.2-6.3-1.7-4.4,3.6c0.1,0.2-0.3,0.6-0.6,0.9c-1.7,1.5-9.8,0.9-11-1c-0.8-1.3-1.6-1.1-2.8-1
		c-11.5,1-23,1.3-34.4-0.8c-6.8-1.2-13.6-1.1-20.4-1.6c-11.2-0.8-22.5,0.7-33.6-0.9c-4.7-0.7-9.1,1.2-13.6,1.4
		c-5.5,0.3-11.1,0.3-16.7,0c-14.4-0.6-28.7,1.7-43.1,1.5c-1.2,0-2.7,0.2-3.7-0.3c-8.2-4.1-16.7-0.5-25-1c-0.1,0-0.3,0.3-0.5,0.6
		c1.3,1.2,3.3,0.7,4.5,2.1c-4,2.5-8.3,2.3-12.2-0.8c-1.1-0.9-2.4-0.6-3.6-0.6c-9.1,0-18.1,0.1-27.2,0c-12.1-0.2-24.1-2.3-36.2-2.2
		c-6.8,0.1-13.6,0.8-20.3,0.6c-6.7-0.2-13.5-1.3-20.1-0.5c-8.7,1-17.6-0.8-26.3,1.3c-2.6,0.6-5.5,0.4-8.1-0.7
		c-2.6-1.2-5.4-0.7-8.1-0.6c-8.8,0.3-17.4,1.1-26.3,0.2c-4.1-0.4-8.7,0.9-12.6,2.5c-6.1,2.4-12.2,3.2-18.6,1.9
		c-1.7-0.3-3.5-0.1-5.2-0.1c-1.9,0-3.9,0.5-4.5-2.5c-0.4-2-2.8-1.2-4.3-1.2c-23.1,0-46.2,0-69.4,0c-1.2,0-2.5,0-3.7,0
		c-2.6,0-6-1.2-5.3,3.7c0.1,0.5-0.6,1-1,1.5c-12.5,0.4-24.6-2.7-37.1-3.2c-12.4-0.5-24.7-2.1-37.2-2c-0.7-1-1.5-1-2.3,0
		c-6.5,0-13,0-19.5,0c0.2-1,0.8-1.5,1.8-1.4c3,0.2,6-0.7,8.9-0.7c11.8,0,23.6-1.3,35.5-0.9c2.6,0.1,5.1,1,7.8,0.8
		c7.8-0.8,15.5-2.3,23.3-2.2c9.8,0.1,19.7-0.2,29.5,0.7c2.3,0.2,4.7-0.6,7-0.5c9.8,0.3,19.5,2.1,29.3,2.2
		c12.1,0.1,24.2-0.3,36.3,0.5c10.4,0.7,20.9,1.4,31.4,1c2.4-0.1,4.7,0.2,6-2.6c0.4-1,1.4-0.9,2.6-0.8c11,1.5,22,2.2,33.1,1.8
		c1.4-0.1,2.8,0,4-0.7c0.3,0.2,0.5,0.5,0.8,0.7c1.8,2.9,4.4,1.5,6.6,1.1c7.1-1.2,13.8-5.1,21.3-4.1c6.6,0.9,13.2,0.6,19.8,0.8
		c0.8,0,1.7,0.4,2.5,0.6c3.5,0.9,7,1.7,10.6,1.6c17.5-0.6,34.8,1,52.2,2.2c4.4,0.3,8.8,0.3,13.3-1.1c4.3-1.3,8.7-4.3,13.7-1.4
		c0.7,0.4,2.3-0.5,3.5-0.9c1.1-0.3,2.1-0.9,3.2-1c8.3-0.3,16.6,0.7,24.9,1.2c5.6,0.3,11.1,1.6,16.7,0.9c3.6-0.4,7.2-1.4,10.7-1.2
		c10.5,0.6,21.1-1.7,31.6,0.3c0.8,0.2,1.8-0.2,2.5-0.5c5-2.5,10.3-1.5,15.5-1.2c13.8,0.7,27.5,2,41.2,2.8c9.3,0.5,18.6,0.5,27.8,2.2
		c5.6,1,11.4,1.1,17,0c2.3-0.4,4.9-0.7,6.6-2.9c0-0.2,0-0.5,0-0.7c3.7,1.4,7.3-0.5,10.9-0.6c5.1-0.2,10.3,0.2,15.4,0.6
		c6.9,0.5,13.8,1.3,20.7,2c6.6,0.7,13.2,0.1,19.9,1.8c4.5,1.2,9.8,1.5,15,0.2c4.6-1.1,10.2,2.1,13.7-3.7c0.3-0.5,1.9-0.3,2.9-0.4
		c5.9-0.3,11.6,1.3,17.4,1.4c9.1,0.2,18.2,0.1,27.3,0.1c4.2,0,8.5,0,12.7,0c3.4-0.1,6.7,0.7,10,1.1c6.6,0.7,13.4,1.1,20-0.3
		c6.5-0.4,13,1.2,19.5,0.7c1.2,1.2,1.3,0.2,1.5-0.7c0.7,0,1.5,0,2.2-0.1c4.2,1.5,8.5,0.7,12.8,0.5
		C1183.8,713.7,1184,712.9,1184.3,712.5z"/>
	<path class="st11" d="M363,714.7c6.5,0,13,0,19.5,0c0.7,1,1.5,1,2.3,0c12.4-0.1,24.8,1.5,37.2,2c12.4,0.5,24.6,3.7,37.1,3.2
		c2.6,1.5,5.6,1.1,8.3,1.3c10.6,0.7,21.2,2.2,31.9,2.7c7.6,0.4,15.2,1,22.7,0.4c9.2-0.8,18.4-0.2,27.6-0.6c2-0.1,3.5,0.5,5.2,1.9
		c2.8,2.2,6.9,1.7,10.3,1.7c8.3,0.2,16.7,1.7,24.9,1.1c10.7-0.8,21,2.4,31.6,1.2c20-2.2,40.1-2.2,60.1-1.2
		c10.4,0.5,20.8,1.1,31.2,1.2c1.8,0,3,1.9,4.9,1.5c-0.3,2.4-2.2,2.9-4.1,3c-6.5,0.2-13-0.7-19.2,3c-3.6,2.1-7.8-0.6-11.4-2.2
		c-1.6-0.7-3.1-1.8-4.9-1.5c-3.8,0.7-7.6-0.2-11.4,0c-6.2,0.2-12.3,1-18.5,0.8c-2.1-0.1-4-1-6.2-0.6c-4,0.7-8.1,0.9-12.1,1.3
		c0.1-0.6,0.3-1.1,1-1.4c0.8-0.3,2.5,0.4,2.3-1c-0.1-1.6-1.9-1.5-3-1.3c-3.3,0.6-6.6,0.8-9.9,0.7c-2,0-2.5,1.3-2.4,3
		c-3,0.2-6,0.5-9,0.7c-0.1-0.8-0.5-1.4-1.4-1.5c-2.8-0.3-5.7-0.7-8.5-0.8c-11.7-0.5-23.3,0.6-35,2.2c-5.1,0.7-10.1-0.8-15.1-1.4
		c-4.2,0-8.5,0-12.7,0c-1.5,0-3,0-4.5,0c-1,0-2,0-3,0c-1.3,0.2-2.7-0.5-3.8,0.7c-5.5,0-11,0-16.5,0c-1.8,0.2-4.1-0.8-4.5,2.3
		c-1,0-2,0-3,0c0.1-1.8,3-2.3,2.2-4.5c5.7,0.3,11.4-0.6,17.1,0.6c2.6,0.6,2.6-1.1,1.6-2.9c5.3-0.3,10.8,0.6,16-1.2
		c-0.4-1.7-1.8-1-2.7-1c-9.6-0.3-19.2-0.1-28.7-0.9c-6.2-0.5-12.5,0.2-18.6-0.8c-7.2-1.2-14.5-1.6-21.7-2.5c-4.2-0.5-8.4-0.9-12.6-1
		c-3.9-0.1-7.6-0.8-11.4-1.3c-2.7-0.3-5.3-0.9-7.8,1.3c-1.6,1.5-3.9,1-5.8,0.6c-6-1.2-11.9-0.3-17.9-0.7c-5.5-0.4-11-1-17-1.6
		c0.6-0.7,0.8-1.1,1-1.2c1-0.6,3.4,0.7,3.1-1.5c-0.2-1.7-2.3-0.8-3.6-0.9c-5.3-0.3-10.7-0.1-16-0.6c-4.8-0.4-9.7,0.6-14.6-0.1
		c-1.6-0.2-2.3-0.8-2.1-2.3C362,714.7,362.5,714.7,363,714.7z M544.3,732.1c2.4,0.4,4.9,1.2,7.2-0.4
		C549.1,731.3,546.7,730.9,544.3,732.1z"/>
	<path class="st2" d="M1014.8,729.8c2.8,2.1,5.7,0.2,8.2-0.2c8-1.3,16.1-1.5,24.1-2.1c14.8-1.1,29.6-1.7,44.4-1.4
		c5.8,0.1,11.6,0.9,17.4,1.5c1.1,0.1,2.5,0.5,2.4,1.9c-0.1,1.7-1.5,2-2.8,1.7c-8.4-1.5-16.8-1.3-25.3-1.8c-0.7,0-1.7-0.7-2.1-0.1
		c-3.2,5.5-8.3,1-12.4,2.3c-2.7,0.9-6.6,0.7-9.4-1.6c-0.1-0.1-0.2-0.1-0.4-0.1c-10.6,2.2-21.5-0.3-32,2.1c-1.4,0.3-2.3,0.8-2.4,2.3
		c-8.4,1.1-18-1.4-24,7.5c-2.2,0-4.5,0-6.7,0c-0.1-1.1-0.8-1.3-1.8-1.5c-4.2-1.1-8.4-0.6-12.6-0.7c-1.4,0-2.8,0.3-4-0.6
		c-6.1-4.5-12.6-3.2-18.7-0.8c-7.3,2.8-14.3,0.6-21.4-0.1c0.6-1.3,3-0.1,3-2.3c1,0.1,2,0.2,2.9,0.3c3.6,0.4,7.3,1.5,10.7,0.9
		c4-0.7,7.8-2.2,11.9-2.8c1.1-0.2,1.8-0.8,1.2-1.7c-2.5-4.1,1.2-2.3,2.5-2.7c1.6,0.3,3-0.5,4.5-0.7c2.1,0.8,4.3,2,6-0.8
		c2.5,0.4,4.9,1,7.5,0.7c0.4,1,2.6,0.6,2,2.2c-0.5,1.4-1.9,0.7-3,0.8c-1.9,0.3-4.5-1-5,2.2c-2.3,0.2-4.8-0.4-7,0.7
		c3,1.2,6,0.6,9,0.8c1,0.1,1.6-0.4,1.8-1.5c3,0,6.1-0.5,9,0.1c5.9,1.3,10-3.7,15.4-3.6c0.1,0,0.3-0.6,0.4-1
		C1010.3,729.8,1012.5,729.8,1014.8,729.8z"/>
	<path class="st2" d="M666.8,733.5c3.8-0.2,7.6,0.7,11.4,0c1.8-0.3,3.3,0.7,4.9,1.5c3.6,1.6,7.8,4.3,11.4,2.2
		c6.2-3.6,12.7-2.7,19.2-3c1.9-0.1,3.8-0.5,4.1-3c0.7,0,1.5,0,2.2,0c0.3,1.8,1.7,2.2,3,2.2c4.4,0,8.6,1.1,13,0.9
		c3.9-0.2,8-0.7,11.8,0.2c10.2,2.4,20.4,1.8,30.7,2c0.5,0.5,1,1,1.5,1.5c-3.1,0-6.2,0.1-9.4,0c-3-0.1-5.6,0.2-7.9,2.5
		c-1.5,1.5-3.6,1.5-5.6,1.1c-3.7-0.8-7.4-1.1-11,0.6c-1,0.4-2.2,0.4-3.3,0.4c-4.2,0-8.5-0.2-12.7,0.1c-6,0.4-11.8-0.8-17.7-2
		c-3.2-0.6-6.4-0.6-9.6,0.4c-0.6,0.2-1.3,0.2-1.4,1c-0.1,1,0.8,1,1.5,1.3c1.9,0.8,5.6-0.3,5.2,2.5c-0.4,2.3-3.9,1-6,1.2
		c-2.4,0.2-4.7,0-7.1,0.1c-2.1,0-4.1,0.1-5.6-2c-1.1-1.5-3.2-1.2-4.9-1c-3,0.3-5.5-0.7-7.3-3c-1.3-1.8-3.1-2-4.6-1.5
		c-5.3,2.1-10.8,1.2-16.3,1.4c0.3-1.8,1.7-1.5,2.9-1.5c2.5-0.1,5,0.1,7.4-0.1c1-0.1,2.4-0.2,2.9-1.3c0.7-1.5-1-1.7-1.8-2.3
		C666.7,735.2,666.8,734.4,666.8,733.5z M713.7,737.4c5,2,9.9,0.4,14.8-0.9C723.5,735.7,718.6,735.3,713.7,737.4z"/>
	<path class="st6" d="M842.3,734.2c-2,0-4,0-6,0c-0.1-2-1.6-2.6-3.1-2.2c-5.8,1.4-11.8,0.1-17.6,1c-1.1,0.2-1.6,0.1-1.8-1.1
		c0-0.3,0-0.5,0-0.8c13.2-1.9,26.6-1.6,39.8-1.9c8.1-0.2,16.2-0.9,24.3-0.7c6.7,0.2,13.4,0.3,20.1-0.3c4.3-0.3,8.7,0.1,13,0.8
		c2.6,0.4,5.2,0.5,7.8,0.6c0.7,0,1.5-0.1,2.2,0c1.3,0.1,3.3-0.5,3.2,1.4c-0.1,1.6-2.1,0.8-3.2,0.8c-7,0.1-14-0.2-20.9,0.1
		c-2.6,0.1-5.7-0.6-7.6,2.1c-1.6,1.1-4.9,0.2-4.5,3.8c-0.2,0-0.5,0-0.7,0c-1.8,0-3.5,0-5.3,0c-0.2,0-0.5,0-0.7,0
		c0.1-2-0.1-3.7-2.8-3.8c-4.5-0.1-9.1-0.6-13.6-0.7c-1.5,0-3.2-0.6-4.6,0.7c-1.3,0-2.5,0-3.8,0c-3.2-1-6.6-1.4-9.8-2.8
		C844.8,730.7,842.7,731.7,842.3,734.2z"/>
	<path class="st11" d="M778.5,736.5c-10.3-0.2-20.5,0.4-30.7-2c-3.7-0.9-7.8-0.4-11.8-0.2c-4.4,0.3-8.7-0.9-13-0.9
		c-1.4,0-2.8-0.4-3-2.2c7.7,0.2,15.3,0.6,23,0.7c5.9,0.1,11.6-0.8,17.2-2.7c5.7-1.9,11.7-1.6,17.6-0.3c-3.3,1.6-6.8,0.3-10.2,0.8
		c-1,0.1-2.7-0.6-2.8,0.9c0,1.7,1.8,1.3,2.9,1.3c6.3,0.3,12.6,0.5,18.9,0.1c2.1-0.2,3.3-0.7,3.2-3c3.6,2.1,7.7,1.3,11.5,2.2
		c0.7,0.2,1.5,0.1,2,0.8c0,0.3,0,0.5,0,0.8c-0.5,0-1,0-1.5,0C793.8,732.6,786.2,734.9,778.5,736.5z"/>
	<path class="st11" d="M892.5,734.3c2-2.7,5.1-2,7.6-2.1c7-0.3,13.9-0.1,20.9-0.1c1.1,0,3.1,0.7,3.2-0.8c0.1-1.9-2-1.3-3.2-1.4
		c-0.7-0.1-1.5,0-2.2,0c2.3-2.4,7.6-1.8,8,1.1c0.3,2.3,1.7,2.7,3.2,3.4c0.3,1.2,0.5,2.5,0.8,3.7c-1,0-2,0-3,0c-0.7,0-1.5,0-2.2,0
		c-0.1-1.5-1.2-1.5-2.3-1.5c-2.5,0-5,0-7.5,0c-0.8-0.2-1.5-0.5-2.3-0.7c-0.4-2.1-2-1.5-3.2-1.5C904.3,734.2,898.4,734.3,892.5,734.3
		z"/>
	<path class="st7" d="M1337.3,711c1-1.2,2.3-0.8,3.5-0.8c27.6,0,55.2,0,82.8,0c-0.3,1.8-1.7,1.5-2.9,1.5c-26.9,0-53.7,0-80.6,0
		C1339.1,711.7,1338,711.9,1337.3,711z"/>
	<path class="st11" d="M979.5,734.3c0.5-3.3,3.1-1.9,5-2.2c1-0.2,2.5,0.5,3-0.8c0.6-1.6-1.6-1.2-2-2.2c2.1-1.4,4.2-0.7,6.4-0.3
		c5.3,1.2,10.7,1.1,16.2,1c-0.1,0.3-0.3,1-0.4,1c-5.4-0.1-9.6,4.9-15.4,3.6c-2.8-0.6-6-0.1-9-0.1C982,734.3,980.7,734.3,979.5,734.3
		z"/>
	<path class="st7" d="M1238.2,713.3c2.3-0.4,4.7-0.5,6.5-2.3c0.7-0.7,1.6-0.7,2.4-0.7c9.4,0,18.7,0,28.1,0c0.8,0,1.5,0.1,2,0.8
		c-5.2,1-10.4,1.3-15.7,1.4c-3.4,0.1-6.6,0.3-9.8,1.5c-4,1.6-8.3,0.6-12.5,0.6C1238.6,714.6,1238.4,713.9,1238.2,713.3z"/>
	<path class="st11" d="M967.5,729.7c-1.3,0.5-5-1.4-2.5,2.7c0.6,1-0.1,1.6-1.2,1.7c-4,0.6-7.9,2.1-11.9,2.8
		c-3.4,0.6-7.1-0.5-10.7-0.9c-1-0.1-2-0.2-2.9-0.3c-0.8-0.5-1.5-1-2.3-1.5c2.5-1,5.1-1.5,7.8-1c5.2,1,10.3-0.7,15.4,0
		c1.5,0.2,1.4-1.8,1.9-2.8C962.6,727.6,965.2,727.3,967.5,729.7z"/>
	<path class="st7" d="M1284,711c0.8-1.1,2-0.8,3.1-0.8c14.4,0,28.9,0,43.3,0c1.1,0,2.3-0.3,3.1,0.8c-0.9,1-2,0.7-3.1,0.7
		c-14.4,0-28.8,0-43.2,0C1286.1,711.7,1284.9,712.1,1284,711z"/>
	<path class="st2" d="M789.8,729c0.2,2.3-1.1,2.9-3.2,3c-6.3,0.4-12.6,0.2-18.9-0.1c-1.2-0.1-3,0.3-2.9-1.3c0-1.5,1.8-0.7,2.8-0.9
		c3.4-0.5,6.9,0.8,10.2-0.8C781.8,729,785.8,729,789.8,729z"/>
	<path class="st6" d="M936,734.2c0.8,0.5,1.5,1,2.3,1.5c0,2.1-2.4,1-3,2.3c-1.5,0-3,0-4.5,0c-0.3-1.2-0.5-2.5-0.8-3.7
		C932,734.2,934,734.2,936,734.2z"/>
	<path class="st7" d="M1195.8,720c-1-0.2-2.5,0.3-2.4-1.5c0.1-1.2,1.1-1.6,2.2-1.5c1.1,0.1,2.5,0.4,2.6,1.6
		C1198.4,720.5,1196.7,719.8,1195.8,720z"/>
	<path class="st6" d="M803.3,732.8c0-0.3,0-0.5,0-0.8c2.7,0,5.5,0,8.2,0c0.3,0,0.5,0,0.8,0C809.5,734.9,806.3,733.6,803.3,732.8z"/>
	<path class="st11" d="M978,728.3c-1.7,2.8-3.9,1.6-6,0.8C973.8,727.5,976,728.6,978,728.3z"/>
	<path class="st7" d="M638,718.4c-0.3,1.1-1.3,0.9-2.1,0.8c-0.8,0-1.5-0.5-1.2-1.4c0.3-0.9,1.1-0.8,1.9-0.7
		C637.4,717.1,638.1,717.3,638,718.4z"/>
	<path class="st11" d="M812.3,732c-0.3,0-0.5,0-0.8,0c0.3-1.6,1-2,2.3-0.8c0,0.3,0,0.5,0,0.8C813.3,732,812.8,732,812.3,732z"/>
	<path class="st10" d="M363,714.7c-0.5,0-1,0-1.5,0c-0.3,0-0.5,0-0.8,0c-1.1-1.2-2.6-0.7-3.9-0.7c-6.4-0.1-12.7-0.1-19.1,0
		c-1.9,0-3.4-0.4-4.8-1.6c0.5-3.1,2.8-3,5.2-3c29.9,0,59.8,1.3,89.6-0.4c31.7-1.8,63.2-0.6,94.9-1c31.7-0.5,63.5-0.1,95.2-0.1
		c1.4,0,2.9-0.4,4.5,0.6c-1,1.2-3.1,1.3-2.9,3.2c-1.2,0.7-2.6,0.7-4,0.7c-11.1,0.4-22.1-0.3-33.1-1.8c-1.1-0.2-2.1-0.2-2.6,0.8
		c-1.3,2.7-3.6,2.5-6,2.6c-10.5,0.5-21-0.3-31.4-1c-12.1-0.8-24.2-0.4-36.3-0.5c-9.8-0.1-19.5-1.9-29.3-2.2c-2.3-0.1-4.7,0.7-7,0.5
		c-9.8-0.9-19.7-0.6-29.5-0.7c-7.9-0.1-15.6,1.4-23.3,2.2c-2.7,0.3-5.1-0.7-7.8-0.8c-11.9-0.4-23.7,0.9-35.5,0.9
		c-2.9,0-5.9,0.9-8.9,0.7C363.8,713.2,363.1,713.7,363,714.7z"/>
	<path class="st11" d="M154.5,738c-1.1,2.4-3.5,2.2-5.4,2.2c-6.7,0-13.3-0.4-20-0.7c-0.7,0-1.7,0-2.2-0.4c-5-4.1-11-3.8-16.9-4.1
		c-3-0.2-6-0.3-9,0c-15.9,1.9-31.8,1.4-47.7,1.4c-2,0-3.4,0.7-3.8,2.8c-0.2,1-0.5,1.7-1.6,1.7c-0.5,0-1,0-1.5,0
		c-5.2,1.2-10.5-0.5-15.7,0c-2.6,0-5.2,0.1-7.8,0c-2.8-0.2-5.4-1-5.7-4.5c5.6,0,11.2,0,16.9,0c1.8,0,4.4-0.3,4.3-2
		c0-1.8-2.8-1.4-4.3-1.5c-8.9-0.2-17.9-0.3-26.8-0.4c-0.6,0-1.3,0.1-1.6-1c14.6-1.4,29.2-1.3,43.8-1.2c0.3,2,2.2,2.1,3.5,2.1
		c8.7,0.1,17.4,0.7,26.1,0.6c5.4-0.1,10.9-0.4,16.4-0.5c7.2-0.1,14.4,0,21.6,0c1.6,0,3.1,0,2.9-2.3c15.4-0.6,30.7,1.4,46.5,0.5
		c-0.9,2.1-1.9,1.7-2.7,1.7c-7.9,0-15.8,0-23.8,0c-0.4,0-0.8-0.1-1.1,0c-1.5,0.4-3.9,0.1-4.1,1.6c-0.3,1.9,2.3,1.2,3.5,1.8
		c2.2,1.1,4.5,1.2,6.9,1.1C148.4,737.1,151.5,737.2,154.5,738z"/>
	<path class="st11" d="M450.7,741.8c0.2,2.6-1.4,3.2-3.6,3c-7.3-0.8-14.6-0.8-21.9-0.7c-1,0-2,0-3,0c-2.1-1.3-4.4-1.5-6.8-1.5
		c-5-1.1-10.2-0.6-15.3-0.8c-1.4-0.1-3,0.6-4.2-0.7c0.3-0.7,1.4-0.8,1.2-1.7c-1.2-5.1-0.3-6.6,5-7.7c6.9-1.4,13.8-1,20.8-1.1
		c-0.2,1.9,0.9,2.2,2.5,2.3c3.3,0.2,6.7,0.6,10,0.8c11.1,0.6,22.2,1.8,33.3,0.6c1.7-0.2,3.4-0.9,5.2-0.7c-0.1,1.4-2,2.1-1.5,3.8
		c-2.3,1.5-5.2,0.2-7.5,1.5c-4.3,0.9-8.4,1-12.7-0.5c-3.2-1.1-6.7-0.3-9.6,2.1C445.1,741.8,445.1,741.8,450.7,741.8z M427.1,740.2
		c1,0,2,0.1,3,0c1-0.1,2.7,0.6,2.9-0.8c0.3-1.5-1.4-1.2-2.4-1.6c-9.6-3.4-19.4-3.7-29.2-1.4c-0.8,0.2-2.1-0.3-1.9,1.1
		c0.1,1,1.1,1.2,2.1,1.2C410.1,738.4,418.6,739.9,427.1,740.2z"/>
	<path class="st11" d="M252,736.5c-1.6,3.6-8,5.6-11.3,3.1c-3.5-2.7-7.5-2.3-11.3-3c-6.8-1.2-13.7-1.9-20.5-2.8
		c-1.6-0.2-3.1,0.1-4.7,0.2c-2.6,0.3-2.2,1.7-1.7,3.3c-7.7-2.1-15.3,0.5-23,0c-1.5-0.1-3,0-4.5,0c-1.9-0.1-3.2-1-3.2-2.9
		c0-2,1.8-2.2,3.3-2.3c7.4-0.1,14.7,0,22.1,0c1.1,0,2.8,0.3,3.2-0.3c2.7-3.9,6.3-2.1,9.8-1.9c6.6,0.3,13.1-0.4,19.7,0.6
		c3.3,0.5,5.7,2.7,8.7,3.8C243,735.9,247.4,736.7,252,736.5z"/>
	<path class="st6" d="M474,733.5c-1.8-0.2-3.4,0.5-5.2,0.7c-11.1,1.2-22.2,0-33.3-0.6c-3.3-0.2-6.7-0.6-10-0.8
		c-1.6-0.1-2.7-0.4-2.5-2.3c9-0.7,18-1.4,27-2.1c0.7-0.1,1.5-0.1,2.2,0c9.9,1.5,19.8,2.1,29.9,0.9c3.6-0.4,7.3,1.1,11,1.1
		c9.6,0.2,19.2,0.1,28.8,0.1c1,1.8,1,3.5-1.6,2.9c-5.7-1.2-11.4-0.3-17.1-0.6C493.5,733.8,483.8,733.5,474,733.5z"/>
	<path class="st11" d="M305.3,735c-1.2,2.8-3.4,2.9-5.4,1.5c-2-1.3-4.1-1.6-6.4-1.5c-8.6,0-17.2,0-25.8,0c-2.7,0-5.4,0.5-8.1,0.7
		c0.7-1.9,0.5-3.2-1.9-3.8c-1.8-0.4-3.5-1.3-5.2-2c-0.6-0.3-1.7-0.2-1.6-1.2c0.1-0.8,0.9-1.1,1.6-1.4c0.9-0.5,1.9-0.8,2.9-0.5
		c4.3,1.3,8.7,0.6,13,0.6c10.8,0,21.5,1.1,32.3,2.2c4.7,0.5,9.5,0.1,14.2,0.1c1.6,0,3.2-0.1,4.9,2.1c-7.3,0.4-14.2-0.4-20.7,2
		C301,734.2,303.1,734.6,305.3,735z"/>
	<path class="st2" d="M120,730.5c0.2,2.3-1.3,2.3-2.9,2.3c-7.2,0-14.4-0.1-21.6,0c-5.5,0.1-11,0.4-16.4,0.5
		c-8.7,0.1-17.4-0.5-26.1-0.6c-1.3,0-3.1-0.1-3.5-2.1c0.5,0,1,0,1.5,0c10.5-0.3,21-0.5,31.5-0.8c4.2,0,8.5,0,12.7,0
		c3.2,0.8,6.5,0.9,9.8,0.8C110,730.5,115,730.5,120,730.5z"/>
	<path class="st6" d="M17.2,736.5c0.4,3.5,2.9,4.3,5.7,4.5c2.6,0.2,5.2,0,7.8,0c-0.3,1.9,0.5,3.1,2.4,3.4c2.4,0.4,4.8,1.3,7.3,1.1
		c-0.7,2.2,2.1,2.7,2.2,4.5c-2.8-0.3-6,1.1-8.2-2c-0.4-0.6-2-0.5-2.3,0.3c-1.6,3.7-3.9,2.3-6.3,1.1c-0.9-0.4-2,0-2.7-1
		c1-1.6,4.3,0.2,4.1-2.2c-0.2-2.4-3-1.5-4.6-2.2c-3.8-1.7-8-1.6-12-2.3c-2.5-0.5-5.1-0.9-4.7-4.5C9.8,737.7,13.5,736.6,17.2,736.5z"
		/>
	<path class="st6" d="M396,741c1.2,1.3,2.8,0.7,4.2,0.7c5.1,0.2,10.2-0.4,15.3,0.8c-1,1.3-3.9,0.3-3.8,3c-2.7,0-5.5,0-8.2,0
		c-5.4,1.7-10.9,2.9-16.7,2.3c-1.2-0.1-2.8,0.3-3.2-1.2c-0.4-1.7,1.2-2.3,2.4-2.8c1.4-0.6,2.7-1.2,3.2-2.8
		C391.5,741,393.8,741,396,741z"/>
	<path class="st11" d="M188.3,740.3c-0.2,2.2,1.3,2.4,2.9,2.2c3.6-0.4,7.1,1,10.7,0.8c0.8,0,1.6,0.3,1.7,1.1c0.1,1.1-0.9,1.1-1.6,1
		c-6.3-0.9-12.2,2.3-18.4,1.5c-1.2-0.1-2.7,0.3-3.2-1.2c-0.4-1.3,0.8-2,1.8-2.5c1.3-0.7,1.7-1.7,1.6-3.1
		C185.2,740.3,186.7,740.3,188.3,740.3z"/>
	<path class="st11" d="M82.5,729.7c-10.5,0.3-21,0.5-31.5,0.8c0.1-1,0.7-1.5,1.8-1.5c9.2-0.1,18.4-1.2,27.6-0.8
		C81.4,728.3,82.4,728.4,82.5,729.7z"/>
	<path class="st11" d="M382,732.6c-3.2,2.6-6.7,2.4-10.9,1.1C374.9,731.2,378.5,732.1,382,732.6z"/>
	<path class="st11" d="M105,730.5c-3.3,0.1-6.5,0-9.8-0.8c2.2-2.4,4.9,0,7.3-0.7C103.6,728.8,104.8,728.9,105,730.5z"/>
	<path class="st11" d="M169.5,741c-1.9-0.4-4.7,1.2-5.3-2.2C165.9,739.8,168.5,738.4,169.5,741z"/>
	<path class="st11" d="M348.8,738.7c-1.6-0.1-3.2-0.4-4.5-1.5C346.1,736.6,347.8,736.7,348.8,738.7z"/>
	<path class="st11" d="M310.5,735.8c-1.3,1-2.5,1.4-3-0.7C308.5,735.1,309.7,734.7,310.5,735.8z"/>
	<path class="st11" d="M330,737.3c-1.3,1-2.5,1.4-3-0.7C328,736.6,329.2,736.2,330,737.3z"/>
	<path class="st11" d="M371.3,740.2c-0.8,0-1.7,0.1-2.3-0.7C370.2,738.3,370.9,738.7,371.3,740.2z"/>
	<path class="st11" d="M356.3,738.7c-0.8,0-1.5,0-2.3,0c0.1-0.8,0.3-1.5,1.3-1.4C356.1,737.5,356.2,738.1,356.3,738.7z"/>
	<path class="st11" d="M375,740.2c-0.8,0-1.5,0-2.3,0c0.1-0.8,0.3-1.5,1.3-1.4C374.8,739,374.9,739.6,375,740.2z"/>
	<path class="st11" d="M318.8,736.5c-0.5,0.8-1,0.8-1.5,0C317.8,735.7,318.3,735.7,318.8,736.5z"/>
	<path class="st11" d="M342.8,737.3c-0.3,0.6-0.9,0.7-1.5,0.7C341.4,737,341.6,736.1,342.8,737.3z"/>
	<path class="st4" d="M1000.5,741.8c6-8.9,15.5-6.4,24-7.5c4.4,3.2,9.4,2,14.2,2.2c0.1,1.1,0.7,2.4,1.6,2c3.4-1.5,7,0.7,10.4-0.5
		c1.7,0.7,3.2,0.6,4.5-0.8c4,0.3,7.8-1.2,11.8-0.8c1.5,0.1,2.3-0.7,2.4-2.2c23.5,0,47,0,70.5,0c0,1.8-0.1,3.7,2.4,3.7
		c4.3,0.1,8.6,0.1,13,0c1.6,0,2.1-0.7,0.8-1.9c-0.6-0.5-1.1-0.9-1.2-1.8c6-0.1,11.9,0.9,17.8,1.3c3.9,0.3,7.9-0.3,11.8-0.9
		c2.8-0.4,5.5-0.8,8.1,0.1c2.6,0.8,4.9-0.6,7.4-0.5c9.1,0.1,18.3-0.5,27.3,0.2c7.3,0.5,14.3,0.3,21.5-0.7c3.5-0.5,7.3,0.8,11,1.3
		c-1.6,3-4.7,1.2-7,2c-2.2,0.7-4.3,1.3-6.4,2.2c-2.7,1.1-6,0.7-9,1.1c-4.3,0.4-8.4-0.5-12.6-1c-7-0.8-13.9-1-20.7,0.7
		c-4.7,1.1-9.4-0.5-14.1-0.6c-6-0.2-12-0.1-18-1.3c-1.5-0.3-2.9-0.6-4.4-0.7c-1.6-0.1-3.7-0.7-4.7,0.5c-2.5,3-5.7,2.3-8.9,2.4
		c-0.7,0-1.7-0.2-1.9,0.8c-0.2,0.9,0.7,1.1,1.4,1.5c1.2,0.6,3.2,0.2,3.5,2.3c-2.8-1.2-5.4-0.5-7.7,1c-1.2,0.7-3.2,1.1-3.2,2.8
		c0,1.9,2.1,2.2,3.4,3c2.4,1.5,5.7,1.9,6.8,5.2c-2.2-0.5-4.2-1.2-6.1-2.6c-3.6-2.7-8.1-2.1-12.2-2.5c-5.4-0.5-10.8-1.5-16.3-0.9
		c-2.2-1.5-4.9-1.3-6.8-0.6c-6.2,2.4-12.4,2.1-18.7,1.3c0.3-1,0.5-2,0.8-3c1.1-0.1,2.7,0.1,2.6-1.4c-0.1-1.3-1.7-1-2.5-0.8
		c-3.6,1-5.2-2.5-7.7-3.7c-2.1-1,1.5-1.2,1.8-2.2c-3.5-1.8-5.7-1.3-8.1,1.8c-0.8,1.1-1.9,0.9-3,1.1c-6.1,0.7-12.2,0.8-18.3,0.8
		c-0.7,0-1.5-0.3-2,0.8c1.1,1.4,3.1,1.1,4.5,2c-1,1.5-2.3,0.8-3.5,0.9c-2,0.2-5-0.8-3.9,3.3c0.2,0.9-0.7,1.1-1.5,1.2
		c-10.6,2.1-21.3,1.2-31.9,0.6c-0.1,0-0.3-0.3-0.6-0.8c2.1-0.6,4.1-1.1,6.1-1.7c-4-1.8-8.7,0.2-12.4-3.7c4.9,0.4,9.4,0.4,13.9-0.2
		c-2-1.4-3.9-2.6-6.4-2.5c-7.6,0.4-15.1-0.8-22.7-1.5C1001.3,742.4,1000.9,742,1000.5,741.8z"/>
	<path class="st8" d="M1260.8,734.3c-0.3-0.7-0.5-1.4-0.9-2c-1.1-1.9-0.2-2.5,1.6-2.5c8.5-0.1,16.4-3.6,24.9-3.6c7,0,14-0.1,21-0.1
		c6.8,0,13.6-1.3,20.5-0.8c3.1,0.3,6.2,0.5,9.3,0.9c0.8,0.1,1.6,0.5,2.3,1.7c-2.4,0.4-4.6,1.2-6.7,1.1c-9.1-0.4-18.2,1.2-27.3,0.8
		c-6.1-0.3-12,2.3-18.2,1.5c-1.6-0.2-1.8,1-1.8,2.2c-4.6,0-9.1,0-13.7,0c-2.6,0-5.2-0.3-7.6,1.2
		C1263.1,735.4,1261.9,734.8,1260.8,734.3z"/>
	<path class="st2" d="M1156.5,756.7c-1-3.3-4.4-3.7-6.8-5.2c-1.3-0.8-3.4-1.1-3.4-3c0-1.7,2-2,3.2-2.8c2.4-1.5,5-2.2,7.7-1
		c0.5,0,1,0,1.5,0c1.9,3.8,5.4,3.9,9,3.7c2,0,4,0,6,0c0.6,0.1,1.5,0.8,1,1c-3.4,1-3.6,4.9-6.2,6.5
		C1164.5,755.7,1160.6,757.2,1156.5,756.7z"/>
	<path class="st8" d="M1331.2,736.1c1.6-2.1,3.3-1.9,4.9-1.8c7.5,0.5,15,0.7,22.5,1.6c4.3,0.5,0.1,2.4,0.1,3.8
		c2.4,1.3,5.1,1.2,7.8,1.3c1.4,0,3.7-1,3.7,1.7c0.1,3-2.4,1.9-3.9,1.9c-4-0.1-7.7,0.3-11.6-2.3c-2.6-1.8-6.4-1.9-8.4-5.2
		c-0.6-1-2.1-0.6-3.2-0.6C1339.3,736.3,1335.5,736.9,1331.2,736.1z"/>
	<path class="st4" d="M1168.5,756c2.6-1.6,2.9-5.5,6.2-6.5c0.5-0.2-0.4-0.8-1-1c0.2-1.3,0.9-2.9,2.3-1.6c2.7,2.5,5.4,1.6,8.2,0.9
		c0.3,1.9-1,2.6-2.4,2.6c-3.4,0.1-6.1,1.6-8.6,3.9C1172.1,755.3,1170.4,756.2,1168.5,756z"/>
	<path class="st8" d="M1303.5,732.8c0.5-0.2,1.1-0.7,1.6-0.7c5.7,0.5,11.4-1.1,17.1-0.8c-0.3,2.3-2.3,1.5-3.6,1.7
		C1313.6,733.7,1308.5,734.1,1303.5,732.8z"/>
	<path class="st4" d="M1167.8,748.5c-3.6,0.2-7.1,0.1-9-3.7c1.8,0,3.7,0.2,5.5,0C1167.3,744.3,1168.1,745.8,1167.8,748.5z"/>
	<path class="st4" d="M1184,747.9c0.9-1.7,1.7-2.5,3.1-1.9c0.4,0.2,0.8,0.7,0.5,1.2C1186.7,748.3,1185.4,747.5,1184,747.9z"/>
	<path class="st8" d="M1366.5,732.8c-1.3-2,0.4-1.9,1.5-2.2C1368,731.6,1367.5,732.3,1366.5,732.8z"/>
	<path class="st8" d="M507,753.8c-2.2,0-4.5,0-6.7,0c-1.4,0-2.7-0.2-3.1,1.8c-0.3,1.6-1.6,1.2-2.7,0.9c-6.8-1.9-13.8-1.6-20.7-0.5
		c-1.1,0.2-2.6,0.5-3.2-0.3c-3.4-4.6-8.3-2.6-12.4-2.3c-4,0.2-7.9,0.3-11.9,0.5c0.1-2,1.6-2,3.2-2.3c3.1-0.5,6.4-0.6,9.1-2.7
		c0.9-0.7,1.8-1.4,1.7-2.7c-0.1-1.2-1.3-1.4-2.3-1.5c-2.2-0.4-2.8-1.6-1.9-3.6c2.5,0,5.1-0.1,7.5,0.7c0.8,0,1.5,0,2.3,0
		c-1.5,3.1-0.1,4.4,2.8,5.4c3.1,1,5.5,4.1,9.2,2.7c2-0.8,4.1-0.9,6.1-1.6c4.9-1.7,10.1-0.9,14.9-2.7c-0.1,2.7,1.8,2.8,3.7,3
		c4.6,0.4,9-1.2,13.5-1.5c0.2,2.3-0.5,3.5-3.1,4C510.8,751.4,509,752.8,507,753.8z"/>
	<path class="st8" d="M403.5,745.5c2.7,0,5.5,0,8.2,0c3.6,0,7.2,0.2,10.5-1.5c1,0,2,0,3,0c-0.1,0.8,0.1,2-1,2.1
		c-6.6,0.9-12.4,5.5-19.5,3.9c-1.3-0.3-3.1,0.5-3.7-1c-0.7-1.7,1.6-1.5,2.2-2.5C403.3,746.2,403.4,745.9,403.5,745.5z"/>
	<path class="st6" d="M431,750.7c-1.2,0-2.5,0-3.7,0c-1.1,0-2.5-0.1-2.4-1.6c0.1-1.2,1.1-2,2.3-2c6.2-0.1,12.5-0.1,18.7,0
		c0.9,0,2.2,0.3,2.2,1.5c0,1.3-1.3,1.4-2.2,1.4C440.9,749.6,435.9,750.7,431,750.7z"/>
	<path class="st6" d="M463.5,741.7c-2.4-0.9-5-0.8-7.5-0.7c-1.7,0.4-3.9-2.1-5.3,0.7c-5.6,0-5.6,0-8.1-1.4c2.9-2.4,6.4-3.2,9.6-2.1
		c4.3,1.5,8.4,1.4,12.7,0.5C464.5,739.7,464,740.7,463.5,741.7z"/>
	<path class="st11" d="M42.8,750c-0.1-1.8-3-2.3-2.2-4.5c2.1,0,4.2,0,6.3,0c1.2,0,2.3,0.2,2.6,1.6c0.3,1.4-0.8,1.8-1.9,2.3
		C45.9,749.9,44.4,750.1,42.8,750z"/>
	<path class="st6" d="M435.8,754.5c-4.8,0-9.5-0.1-14.2,0.7c0.1-0.5,0-1.1,0.2-1.4C424,751.4,433.3,751.9,435.8,754.5z"/>
	<path class="st5" d="M161.8,751.6c5.2,0.3,10.3-0.9,15.5,0.1c0,0.3,0,0.7,0,1c-5.2,0-10.3,0-15.5,0
		C161.8,752.3,161.8,751.9,161.8,751.6z"/>
	<path class="st6" d="M46.5,741c0.5,0,1,0,1.5,0c-0.1,0.5-0.1,1.3-0.9,1.1C46.8,742.1,46.7,741.4,46.5,741z"/>
	<path class="st4" d="M930.8,738c1.5,0,3,0,4.5,0c7.1,0.7,14.1,2.9,21.4,0.1c6.2-2.4,12.7-3.7,18.7,0.8c1.2,0.9,2.6,0.6,4,0.6
		c4.2,0.1,8.4-0.3,12.6,0.7c1,0.2,1.6,0.5,1.8,1.5c-2.4,0-4.7,0-7.1,0c-1,0-2.3,0.1-2.2,1.4c0.1,1.2,1.3,0.8,2.1,0.8
		c2.6,0.1,5.2-0.5,8.1,1.8c-4.3,0.8-8.1,0.4-11.8,0.4c-2.5,0-5.6,1.1-7-2.5c-0.3-0.9-1.8-0.4-2.8-0.4c-7.6,0-15.2,0.2-22.8-0.1
		c-7.3-0.3-14.4-2.5-21.5-3.8c-0.7-0.1-0.9-0.8-1-1.4C928.8,738,929.8,738,930.8,738z"/>
	<path class="st4" d="M946,747.2c-8,0.2-15.9,1.1-23.8,0c-0.9-0.1-1.7-0.2-2.6-0.2c-1,0-2.1-0.1-2.6,1c-0.7,1.4,1.6,1,1.3,2.8
		c-7.1-0.8-14.4,1.4-21.5-1.4c-1-0.4-2.8-0.6-2.4-2.3c0.3-1.4,1.9-0.8,2.9-0.8c11.1,0,22.1-2.4,33.2-1.5
		C935.6,745.2,940.9,745.4,946,747.2z"/>
	<path class="st4" d="M987.3,749.5c-3.3,1.4-6.4,2-10,1.4c-5.5-0.9-11.1,0.3-16.6-1.5c-1.5-0.5-3.6,0.4-5.4,0.8
		c-1.1,0.3-1.9,0.2-2.8-0.3c-1.3-0.7-3.4-1.2-3.2-2.7c0.3-1.9,2.5-0.9,3.8-0.9c5.8-0.1,11.6,0.7,17.5,0.9
		C976.1,747.3,981.7,748.7,987.3,749.5z"/>
	<path class="st4" d="M887.3,738c0.2,0,0.5,0,0.7,0c1.5-0.1,3.1,0.5,4.3-0.4c2.3-1.9,5-1.9,7.7-1.8c-0.2,0.8-0.9,1.8-0.6,2.4
		c2.4,5.1-1.7,3.4-3.7,3.5c-3.3,0.2-6.6,0-9.9,0C886.3,740.5,886.8,739.3,887.3,738z"/>
	<path class="st8" d="M887.3,738c-0.5,1.2-1,2.5-1.5,3.7c-6.5,0-13,0-19.5,0c-0.2-1.8,0.9-2.3,2.5-2.3c3.5,0.1,6.9,0,10.4,0
		c1.2,0,2.6,0.3,2.9-1.5C883.7,738,885.5,738,887.3,738z"/>
	<path class="st2" d="M900,735.8c-2.7-0.1-5.4-0.1-7.7,1.8c-1.2,1-2.9,0.3-4.3,0.4c-0.4-3.6,2.9-2.6,4.5-3.8c5.9,0,11.8,0,17.8,0
		c1.2,0,2.9-0.6,3.2,1.5C909,735.8,904.5,735.8,900,735.8z"/>
	<path class="st5" d="M1097.3,748.5c-0.3,1-0.5,2-0.8,3c-0.8,0.1-1.9-0.2-2.1,1c-0.1,1.7,1.9,0.8,2.7,2.7c-4.3,0-8.2,0-12.1,0
		c-0.7,0-1.1-0.4-1.1-1.2c0.1-0.6,0.5-1,1-0.9C1090.3,754.7,1093.2,750.1,1097.3,748.5z"/>
	<path class="st4" d="M915.8,736.5c2.5,0,5,0,7.5,0c0,0.5,0,1,0,1.5C920.4,739.4,917.9,738.6,915.8,736.5z"/>
	<path class="st4" d="M1028.6,756c-0.1,0.6-0.6,0.7-1.1,0.7c-0.5,0-1.1,0-1.1-0.7c0-0.7,0.6-0.7,1.1-0.7
		C1028,755.3,1028.5,755.3,1028.6,756z"/>
	<path class="st2" d="M923.3,738c0-0.5,0-1,0-1.5c1.1,0,2.2,0,2.3,1.5C924.8,738,924,738,923.3,738z"/>
	<path class="st2" d="M516,747c-4.5,0.3-8.9,1.9-13.5,1.5c-1.9-0.2-3.8-0.4-3.7-3c2.7-1.2,5.6-1.4,8.4-1.4c11-0.1,21.9-1.4,32.9-0.9
		c-0.4,4.5,2.5,2.6,4.5,2.2c11,0.6,21.8-2.2,32.8-1.5c13.2,0.9,26.5,0.9,39.7,2.9c4.7,0.7,10.1-0.6,14.3,1.1
		c8.3,3.3,16.9,1,25.4,2.3c-2.3,1.9-2.3,1.9-14.7,1.9c-4.2,0-8.5,0.1-12.7,0c-3.4-0.1-6.7,0.3-9.6,2.4c-1.7,1.2-3.6,0.5-5.5,0.7
		c-0.6-3.4-3.3-1.9-5.3-2.2c-0.5,0-1,0-1.5,0c1.6-2.4,1-3.4-1.9-3c-0.6,0.1-1.2,0-1.9,0c-8.5,0.5-17-0.8-25.5-0.8
		c-1.1-4.6-4.8-2.6-7.5-3c-5-0.6-10,0.9-15,0.7c-2.4-0.1-4.8-0.2-5.3,3c-5.6,0-11.1,0-16.7,0c-1.5,0-3,0.1-4.3-0.8
		c0.1-1.5,1.2-1.5,2.2-1.5c2.3-0.6,4.4-1.8,7.6-1.7c-2.5-2-4.8-1-6.8-1.3C526.9,744.8,521.5,746,516,747z"/>
	<path class="st6" d="M549,734.3c5,0.7,10.1,2.1,15.1,1.4c11.6-1.5,23.2-2.6,35-2.2c2.8,0.1,5.7,0.5,8.5,0.8
		c0.9,0.1,1.3,0.6,1.4,1.5c0,0,0,0,0,0c-1.1,0-2.4-0.4-3.3,0.1c-2.3,1.2-5.5-0.8-7.2,2.2c-1.2-0.2-2.5-0.5-3.7-0.7
		c-4.3,0.2-8.6-0.6-12.8,0.7c-4.1-1.5-6.8-0.9-9,2.2c-0.7,0-1.5,0-2.2,0c-5,0-10,1.2-15,0.8c-3.5-0.7-7,2.2-10.5,0
		c-0.8-2.3-0.7-3.9,2.4-3.8C550.6,737.4,549,735.5,549,734.3z"/>
	<path class="st2" d="M651.8,741c-2.8-0.2-5.3,0.2-7.3,2.6c-1.4,1.7-3.9,1.8-5.8,0.2c-1.5-1.3-3.1-1.4-4.8-1.4c-5.7,0-11.5,0-17.2,0
		c-1.1,0-2.4,0.4-4-1.1c5.7-0.5,10.9-0.9,16.4-1.4c-0.9-1.9-2.4-1.8-3.8-2c-2.3-0.4-5,0.3-6.5-2.2c2.2,0,4.5,0,6.7,0
		c3.1,0.4,6.1,1.9,9.3,0.7c2.6-0.9,5.2-0.6,7.6,0.1C645.7,737.5,649.3,738.1,651.8,741z"/>
	<path class="st6" d="M651.8,741c-2.5-2.8-6-3.5-9.4-4.4c-2.4-0.7-5.1-1-7.6-0.1c-3.2,1.2-6.2-0.4-9.3-0.7c0-0.2,0-0.5,0-0.7
		c0.8,0,1.5,0,2.3,0s1.5,0,2.3,0c4-0.4,8.1-0.6,12.1-1.3c2.2-0.4,4.1,0.5,6.2,0.6c6.2,0.2,12.3-0.7,18.5-0.8c0,0.9,0,1.7,0.9,2.3
		c0.8,0.6,2.5,0.7,1.8,2.3c-0.5,1.1-1.9,1.2-2.9,1.3c-2.5,0.2-4.9,0.1-7.4,0.1c-1.2,0-2.6-0.3-2.9,1.5
		C654.7,741,653.3,741,651.8,741z"/>
	<path class="st2" d="M812.3,732c0.5,0,1,0,1.5,0c0.1,1.1,0.7,1.2,1.8,1.1c5.8-0.9,11.8,0.4,17.6-1c1.6-0.4,3,0.2,3.1,2.2
		c-1.8,3-4.7,3.7-7.7,2.9c-5.4-1.5-10.6,0.1-15.8,0.3c-4.4,0.1-8.8,1.2-13.2,0.6c-0.5-2.3,1.7-3.4,2.3-5.3c0.5,0,1,0,1.5,0
		C806.3,733.6,809.5,734.9,812.3,732z"/>
	<path class="st2" d="M549,734.3c0,1.2,1.6,3.2-1.4,3c-3.1-0.2-3.2,1.5-2.4,3.8c-5.5,0.5-11-1.1-16.5-0.8c-2.2-2.8-5.5-3.2-8.7-3.7
		c-4.3-0.8-8.2,1.1-12.3,1.5c0.3-1,0.5-2,0.8-3c5.5,0,11,0,16.5,0c1.5,1,2.9,1.6,3.8-0.7c1,0,2,0,3,0c1.5,2.3,3,2.3,4.5,0
		C540.5,734.3,544.7,734.3,549,734.3z"/>
	<path class="st2" d="M647.9,745c13.5,0.5,26.4,1,39.9,1.5c-8,4.6-16.1,4.5-24.3,4.2c-0.6,0-1.6-0.1-1.7-0.5
		c-1.6-3.6-4.7-2.3-7.4-2.5C652,747.6,649.7,747.8,647.9,745z"/>
	<path class="st2" d="M463.5,741.7c0.5-1,1-2,1.5-3c2.3-1.3,5.2,0,7.5-1.5c7,0,14,0,21,0c0,1,0,2,0,3c-0.7,0-1.5,0-2.2,0
		c-1.2-1.2-1.9-0.8-2.3,0.8c-1,0-2,0-3,0c-3.8-1.5-7.7-0.7-11.6-0.5c-0.9,0.1-1.8,0.7-1.9,2c-2.3,0.1-4.6,0-6.7-0.7
		C465,741.8,464.3,741.8,463.5,741.7z"/>
	<path class="st6" d="M801.8,732.8c-0.5,1.8-2.7,3-2.3,5.3c-2,0-4,0-6,0c-1.3,0-2.5,0-3.8,0c-3.2,1.5-6.5,0.2-9.7,0
		c-0.5-0.5-1-1-1.5-1.5C786.2,734.9,793.8,732.6,801.8,732.8z"/>
	<path class="st8" d="M493.5,740.2c0-1,0-2,0-3c1.5,0,3,0,4.5,0c0.2,0.4,0.3,1.1,0.6,1.1c0.8,0.2,0.8-0.6,0.9-1.1c0.5,0,1,0,1.5,0
		c1,0,2,0,3,0c1.1,1.2,2.5,0.6,3.7,0.7c4.1-0.4,8.1-2.3,12.3-1.5c3.2,0.6,6.4,1,8.7,3.7c-2.6,0.4-5.2-0.3-7.7-0.9
		c-6.1-1.4-12,0-18,0.6C499.9,740.3,496.7,740.1,493.5,740.2z"/>
	<path class="st8" d="M582,738c4.2-1.3,8.5-0.5,12.8-0.7c0,0.2-0.1,0.5,0,0.7c1.7,3.8,1.7,3.6-3,3.8c-4.3,0.2-8.5-1-12.8-0.8
		C579,739,581.3,739.3,582,738z"/>
	<path class="st2" d="M860.3,734.3c1.3-1.3,3.1-0.8,4.6-0.7c4.5,0.1,9.1,0.5,13.6,0.7c2.7,0.1,2.9,1.8,2.8,3.8
		C874.2,737.1,867.2,735.8,860.3,734.3z"/>
	<path class="st0" d="M625.5,735c0,0.2,0,0.5,0,0.7c-2.2,0-4.5,0-6.7,0c-0.3-0.2-0.5-0.5-0.8-0.7c-0.1-1.7,0.4-3,2.4-3
		c3.3,0.1,6.6-0.2,9.9-0.7c1.1-0.2,2.9-0.4,3,1.3c0.1,1.5-1.5,0.7-2.3,1c-0.7,0.3-0.9,0.8-1,1.4c-0.8,0-1.5,0-2.3,0
		c-0.1-0.6-0.2-1.3-0.9-1.4C625.8,733.5,625.6,734.2,625.5,735z"/>
	<path class="st2" d="M842.3,734.2c0.5-2.5,2.6-3.5,4.4-2.8c3.2,1.3,6.6,1.8,9.8,2.8c-1.1,1.2-2.3,1.6-4,1.1
		C849.2,734.4,845.7,734,842.3,734.2z"/>
	<path class="st2" d="M555.7,741c5,0.5,10-0.8,15-0.8c-0.1,1.1-0.8,1.3-1.7,1.6c-3.9,1.2-7.9,0.5-11.9,0.6
		C556.2,742.5,555.9,741.8,555.7,741z"/>
	<path class="st8" d="M472.5,742.5c0.1-1.2,1-1.9,1.9-2c3.9-0.2,7.8-1,11.6,0.5C481.6,742.2,477.1,742.5,472.5,742.5z"/>
	<path class="st2" d="M582,738c-0.7,1.3-3,1-3,3c-2-0.3-4-0.5-6-0.8C575.2,737.1,577.9,736.5,582,738z"/>
	<path class="st8" d="M598.5,738c1.7-3,4.9-1,7.2-2.2c0.9-0.5,2.2-0.1,3.3-0.1c-0.9,2.4-3.1,2.1-4.9,2.2
		C602.2,738.1,600.4,738,598.5,738z"/>
	<path class="st8" d="M544.5,745.5c-2,0.3-4.9,2.2-4.5-2.2C541.8,743.4,544.1,742.5,544.5,745.5z"/>
	<path class="st2" d="M789.7,738c1.3,0,2.5,0,3.8,0C792.3,740.4,791,740.4,789.7,738z"/>
	<path class="st8" d="M489,741c0.3-1.6,1-2,2.3-0.8C490.7,741.1,489.8,741,489,741z"/>
	<path class="st4" d="M531.8,747.8c-1.1,0-2.2,0-2.2,1.5c-5,1.6-8.1,7.4-14,6.7c-2.9-0.4-5.6-1.4-8.5-2.2c2-1,3.8-2.4,5.9-2.8
		c2.6-0.5,3.3-1.7,3.1-4c5.5-1,10.9-2.2,16.5-2.3C532.2,745.8,532,746.8,531.8,747.8z"/>
	<path class="st4" d="M570.7,746.3c2.7,0.4,6.4-1.6,7.5,3c-2.4,1.5-5.1,1-7.5,0.6C567.7,749.2,571.6,747.5,570.7,746.3z"/>
	<path class="st4" d="M603.8,750c0.6,0,1.2,0.1,1.9,0c2.9-0.4,3.5,0.6,1.9,3C604.2,754.6,604,752.2,603.8,750z"/>
	<path class="st8" d="M550.5,750c0.5-3.2,2.9-3.1,5.3-3C555.5,750.6,552.8,750,550.5,750z"/>
	<path class="st4" d="M609,753c1.9,0.4,4.7-1.2,5.3,2.2C612.3,754.9,609.6,756.4,609,753z"/>
	<path class="st3" d="M1155,734.3c0,0.8,0.6,1.3,1.2,1.8c1.4,1.2,0.9,1.9-0.8,1.9c-4.3,0-8.6,0-13,0c-2.5,0-2.5-1.9-2.4-3.7
		C1145,734.3,1150,734.3,1155,734.3z"/>
	<path class="st2" d="M1069.5,734.3c-0.1,1.5-1,2.4-2.4,2.2c-4-0.4-7.8,1.1-11.8,0.8c0.1-1.5,1-2.2,2.4-2.2
		C1061.6,734.8,1065.6,734.5,1069.5,734.3z"/>
	<path class="st2" d="M1050.8,738c-3.4,1.2-6.9-0.9-10.4,0.5c-0.9,0.4-1.6-0.9-1.6-2C1043,734.7,1046.9,736.6,1050.8,738z"/>
	<path class="st10" d="M249,712.4c2.4-3.1,5.2-4.6,9.6-4.6c20.4,0.3,40.7,0.1,61.1,0.1c1.3,0,2.6,0,4,0c-0.2,2.2-2.8,1.9-2.7,3.8
		c-1,0.2-1.9,0.7-2.9,0.7c-12.7,0.1-25.3,0.3-37.8-2.1c-2.1-0.4-4.4-0.7-6.5,0.8c-0.6,0.4-1.4,0.5-2.1,0.5
		C264.1,711.8,256.5,711.4,249,712.4z"/>
	<path class="st10" d="M243.8,712.5c1-1,2-1,3,0C245.7,713.6,244.7,713.6,243.8,712.5z"/>
	<path class="st10" d="M961.5,711.7c-1.6,2.2-4.3,2.4-6.6,2.9c-5.6,1.1-11.4,1-17,0c-9.2-1.6-18.5-1.7-27.8-2.2
		c-13.8-0.8-27.5-2.1-41.2-2.8c-5.1-0.3-10.5-1.3-15.5,1.2c-0.7,0.4-1.7,0.7-2.5,0.5c-10.5-2.1-21.1,0.2-31.6-0.3
		c-3.5-0.2-7.1,0.8-10.7,1.2c-5.6,0.7-11.2-0.5-16.7-0.9c-8.3-0.5-16.6-1.4-24.9-1.2c-1.1,0-2.1,0.6-3.2,1c-1.2,0.3-2.8,1.3-3.5,0.9
		c-4.9-2.9-9.4,0.1-13.7,1.4c-4.5,1.4-8.9,1.4-13.3,1.1c-17.4-1.2-34.7-2.7-52.2-2.2c-3.6,0.1-7.2-0.7-10.6-1.6
		c-0.8-0.2-1.7-0.6-2.5-0.6c-6.6-0.1-13.2,0.1-19.8-0.8c-7.5-1-14.2,2.9-21.3,4.1c-2.2,0.4-4.8,1.8-6.6-1.1c4.5,0,9-0.9,13.1-2.6
		c3.5-1.4,6.9-2,10.5-2c23.9,0.1,47.7,0.1,71.6,0.1c0.4,2.1,2.1,1.4,3.3,1.5c8.6,0,17.2-0.3,25.7,0.2c5,0.3,10.1,0.5,14.8-0.4
		c8.9-1.7,17.7-1.7,26.5-1c9.6,0.7,19.1,0,28.7,1.1c4.4,0.5,9.1-1.3,13.6-1.2c9.6,0.2,19.2-1.3,28.7-0.8c23.9,1.3,47.9,0.4,71.8,0.6
		c4.7,0.1,8.7,2.7,13.3,3.1C948.4,711.7,954.9,713.1,961.5,711.7z"/>
	<path class="st9" d="M716.2,706.5c14.5,0,29.1,0,43.6,0c-0.5,2.2-2.4,1.4-3.7,1.4c-13.5,0.1-27.1,0-40.6,0
		C715.5,707.4,715.6,706.8,716.2,706.5z"/>
	<path class="st9" d="M334.5,706.5c11.2,0,22.4,0,33.6,0c1.1,0,2.3-0.3,3.1,0.7c-0.8,1.1-2,0.8-3.1,0.8c-10.1,0-20.2,0-30.3,0
		C336.5,708,334.9,708.6,334.5,706.5z"/>
	<path class="st9" d="M376.5,706.6c1,0,2,0,3,0C378.5,708.6,377.5,708.6,376.5,706.6z"/>
	<path class="st10" d="M1104.8,712.5c-9.1,0-18.2,0.2-27.3-0.1c-5.8-0.1-11.5-1.7-17.4-1.4c-1,0-2.5-0.1-2.9,0.4
		c-3.5,5.7-9.1,2.6-13.7,3.7c-5.2,1.3-10.5,1-15-0.2c-6.7-1.8-13.3-1.2-19.9-1.8c-6.9-0.7-13.8-1.5-20.7-2
		c-5.1-0.4-10.3-0.8-15.4-0.6c-3.6,0.1-7.2,2-10.9,0.6c0.9-3.7,4.3-2.8,6.5-2.8c19.2-0.3,38.5-0.2,57.7-0.1c0.9,0,1.8-0.2,2.4,0.7
		c3,5,8,3.3,12.3,3.7c1.8,0.2,2-2.2,3.7-2.3c0.5,0,0.9,0,1.4,0.1c2,0.2,4.2,1.4,5.4-1.7c0.3-0.9,1.8-0.5,2.8-0.6
		c15.9,0,31.9,0.1,47.8-0.1C1105.4,707.9,1104.7,710.2,1104.8,712.5z"/>
	<path class="st10" d="M1147.5,713.3c-6.7,1.4-13.4,1-20,0.3c-3.3-0.4-6.6-1.2-10-1.1c0.2-1.6,1.4-2,2.6-2.1c9-1.1,18-1.1,27-0.7
		C1151.2,709.8,1146.4,712.1,1147.5,713.3z"/>
	<path class="st10" d="M1184.3,712.5c-0.2,0.4-0.5,1.2-0.7,1.2c-4.3,0.2-8.6,1-12.8-0.5C1175.2,711.6,1179.8,712.9,1184.3,712.5z"/>
	<path class="st10" d="M1168.5,713.3c-0.2,0.9-0.4,1.9-1.5,0.7C1167.3,713.4,1167.9,713.3,1168.5,713.3z"/>
	<path class="st0" d="M384.8,714.8c-0.8,1-1.5,1-2.3,0C383.3,713.8,384,713.8,384.8,714.8z"/>
	<path class="st0" d="M501,737.3c-0.5,0-1,0-1.5,0c-0.5,0-1,0-1.5,0c-1.5,0-3,0-4.5,0c-7,0-14,0-21,0c-0.5-1.6,1.4-2.3,1.5-3.8
		c9.8,0,19.5,0.3,29.2-0.8C504,735,501.1,735.4,501,737.3z"/>
	<path class="st6" d="M544.3,732.1c2.4-1.2,4.8-0.8,7.2-0.4C549.2,733.3,546.7,732.5,544.3,732.1z"/>
	<path class="st6" d="M507.7,738c-1.3-0.2-2.7,0.5-3.7-0.7c0.4-3,2.7-2.1,4.5-2.3C508.3,736,508,737,507.7,738z"/>
	<path class="st6" d="M536.3,734.3c-1.5,2.3-3,2.3-4.5,0C533.2,734.3,534.8,734.3,536.3,734.3z"/>
	<path class="st6" d="M528.8,734.3c-0.8,2.3-2.2,1.8-3.8,0.7C526.1,733.7,527.5,734.4,528.8,734.3z"/>
	<path class="st4" d="M979.5,734.3c1.2,0,2.5,0,3.7,0c-0.1,1-0.7,1.5-1.8,1.5c-3-0.2-6,0.5-9-0.8
		C974.7,733.9,977.2,734.4,979.5,734.3z"/>
	<path class="st4" d="M713.7,737.4c4.9-2.1,9.8-1.8,14.8-0.9C723.6,737.8,718.8,739.4,713.7,737.4z"/>
	<path class="st6" d="M427.1,740.2c-8.5-0.4-17-1.8-25.6-1.5c-0.9,0-2-0.2-2.1-1.2c-0.1-1.3,1.2-0.9,1.9-1.1
		c9.9-2.3,19.6-1.9,29.2,1.4c1,0.3,2.7,0,2.4,1.6c-0.3,1.4-1.9,0.6-2.9,0.8C429.1,740.3,428.1,740.2,427.1,740.2z"/>
	<path class="st2" d="M422.3,744c-3.3,1.7-6.9,1.5-10.5,1.5c-0.1-2.7,2.7-1.7,3.8-3C417.9,742.5,420.2,742.7,422.3,744z"/>
	<path class="st8" d="M531.8,747.8c0.2-1,0.5-2,0.7-3c2.1,0.3,4.3-0.7,6.8,1.3C536.2,745.9,534,747.1,531.8,747.8z"/>
	<path class="st11" d="M625.5,735c0.1-0.8,0.3-1.5,1.3-1.4c0.8,0.1,0.8,0.8,0.9,1.4C627,735,626.3,735,625.5,735z"/>
	<path class="st2" d="M498,737.3c0.5,0,1,0,1.5,0c-0.1,0.5-0.1,1.3-0.9,1.1C498.3,738.3,498.2,737.6,498,737.3z"/>
</g>
</svg>
