<?xml version="1.0" encoding="utf-8"?>
<!-- Generator: Adobe Illustrator 20.0.0, SVG Export Plug-In . SVG Version: 6.00 Build 0)  -->
<svg version="1.1" id="Layer_1" xmlns="http://www.w3.org/2000/svg" xmlns:xlink="http://www.w3.org/1999/xlink" x="0px" y="0px"
	 viewBox="0 0 983 18" style="enable-background:new 0 0 983 18;" xml:space="preserve">
<style type="text/css">
	.st0{fill:#4A0B09;}
</style>
<g>
	<path class="st0" d="M983,1.9c0,5,0,10,0,15c-327.7,0-655.3,0-983,0c0-5,0-10,0-15c3.3,0.4,6.5,1.1,9.8,1
		c5.5-0.1,11.1-0.8,16.6-0.8C43.2,2,60,1.9,76.8,2.1c11.6,0.1,23.2,0.8,34.8,0.9c8.1,0,16.1-0.8,24.2-0.8c5.5,0,11,0.9,16.4,0.8
		c9.8-0.1,19.5-0.8,29.3-0.8c14.3,0,28.5,0.5,42.8,0.6c3.8,0,7.5-0.6,11.3-0.7c17.1-0.1,34.2,0,51.4,0c15.8,0,31.6-0.1,47.5,0
		c8.9,0.1,17.9,0.7,26.8,0.9c7.8,0.1,15.5-0.3,23.3-0.3c8.7,0,17.4,0.3,26.1,0.3c1.2,0,2.4-0.7,3.6-1c1.2-0.3,2.6-1.1,3.6-0.8
		c8.2,2.8,16.5,2.3,24.9,0.9c0.9-0.1,1.8,0.2,2.7,0.5c1.7,0.5,3.4,1.1,5.1,1.6c0.1-0.3,0.2-0.7,0.3-1c-0.4-0.3-0.7-0.5-2.1-1.4
		c4.4,1,7.6,1.8,10.8,2.6c0.1-0.4,0.2-0.7,0.2-1.1c-0.7-0.2-1.5-0.5-2.2-0.7c1.7-0.2,3,0.7,4.3,1.2c1,0.4,2.3,0.4,3.4,0.3
		c9.3-0.6,18.7-1.7,28-1.8c11-0.1,22.1,0.8,33.1,0.8c10.5,0,21-0.7,31.6-0.9c8.5-0.2,17-0.1,25.4,0C589.1,2.2,595,3,601,2.9
		c10.4-0.1,20.8-0.8,31.3-0.8c14.5,0,29.1,0.4,43.6,0.4c6.2,0,12.5-0.4,18.7-0.5c6.5-0.1,13,0.1,19.5,0.1c17.7,0,35.4-0.1,53.1,0
		c7.4,0,15.1,1.9,22.2,0.5c9.1-1.7,18.3,2.5,27.1-1.6c0.4-0.2,1-0.1,1.5,0.1c8,2.9,16.2,2.3,24.4,1c1-0.2,2-0.1,2.9,0.2
		c1.7,0.6,3.4,1.4,5,2.1c0.1-0.4,0.2-0.7,0.4-1.1c-0.4-0.3-0.9-0.7-1.9-1.5c3.9,0.9,7.2,1.6,10.4,2.3c0.1-0.4,0.2-0.7,0.2-1.1
		c-0.7-0.2-1.4-0.4-2.2-0.6c4.8,0.5,9.4,1.4,14,1.3c15.3-0.4,30.7-1.2,46-1.7c3.2-0.1,6.5,0.9,9.7,0.8c4.5-0.2,9-1.4,13.5-1.5
		c5.5-0.2,11.1,0.3,16.6,0.3C965.7,1.8,974.4,1.8,983,1.9z"/>
</g>
</svg>
