<?xml version="1.0" encoding="utf-8"?>
<!-- Generator: Adobe Illustrator 20.0.0, SVG Export Plug-In . SVG Version: 6.00 Build 0)  -->
<svg version="1.1" id="Layer_1" xmlns="http://www.w3.org/2000/svg" xmlns:xlink="http://www.w3.org/1999/xlink" x="0px" y="0px"
	 viewBox="0 0 983 18" style="enable-background:new 0 0 983 18;" xml:space="preserve">
<style type="text/css">
	.st0{fill:#4A0B09;}
</style>
<g>
	<path class="st0" d="M1,16C1,11,1,6,1,1c327.7,0,655.3,0,983,0c0,5,0,10,0,15c-3.3-0.4-6.5-1.1-9.8-1c-5.5,0.1-11.1,0.8-16.6,0.8
		c-16.8,0.1-33.6,0.2-50.4,0C895.6,15.7,884,15,872.4,15c-8.1,0-16.1,0.8-24.2,0.8c-5.5,0-11-0.9-16.4-0.8
		c-9.8,0.1-19.5,0.8-29.3,0.8c-14.3,0-28.5-0.5-42.8-0.6c-3.8,0-7.5,0.6-11.3,0.7c-17.1,0.1-34.2,0-51.4,0c-15.8,0-31.6,0.1-47.5,0
		c-8.9-0.1-17.9-0.7-26.8-0.9c-7.8-0.1-15.5,0.3-23.3,0.3c-8.7,0-17.4-0.3-26.1-0.3c-1.2,0-2.4,0.7-3.6,1c-1.2,0.3-2.6,1.1-3.6,0.8
		c-8.2-2.8-16.5-2.3-24.9-0.9c-0.9,0.1-1.8-0.2-2.7-0.5c-1.7-0.5-3.4-1.1-5.1-1.6c-0.1,0.3-0.2,0.7-0.3,1c0.4,0.3,0.7,0.5,2.1,1.4
		c-4.4-1-7.6-1.8-10.8-2.6c-0.1,0.4-0.2,0.7-0.2,1.1c0.7,0.2,1.5,0.5,2.2,0.7c-1.7,0.2-3-0.7-4.3-1.2c-1-0.4-2.3-0.4-3.4-0.3
		c-9.3,0.6-18.7,1.7-28,1.8c-11,0.1-22.1-0.8-33.1-0.8c-10.5,0-21,0.7-31.6,0.9c-8.5,0.2-17,0.1-25.4,0c-5.9-0.1-11.9-0.9-17.8-0.8
		c-10.4,0.1-20.8,0.8-31.3,0.8c-14.5,0-29.1-0.4-43.6-0.4c-6.2,0-12.5,0.4-18.7,0.5c-6.5,0.1-13-0.1-19.5-0.1
		c-17.7,0-35.4,0.1-53.1,0c-7.4,0-15.1-1.9-22.2-0.5c-9.1,1.7-18.3-2.5-27.1,1.6c-0.4,0.2-1,0.1-1.5-0.1c-8-2.9-16.2-2.3-24.4-1
		c-1,0.2-2,0.1-2.9-0.2c-1.7-0.6-3.4-1.4-5-2.1c-0.1,0.4-0.2,0.7-0.4,1.1c0.4,0.3,0.9,0.7,1.9,1.5c-3.9-0.9-7.2-1.6-10.4-2.3
		c-0.1,0.4-0.2,0.7-0.2,1.1c0.7,0.2,1.4,0.4,2.2,0.6c-4.8-0.5-9.4-1.4-14-1.3c-15.3,0.4-30.7,1.2-46,1.7c-3.2,0.1-6.5-0.9-9.7-0.8
		c-4.5,0.2-9,1.4-13.5,1.5c-5.5,0.2-11.1-0.3-16.6-0.3C18.3,16.1,9.6,16.1,1,16z"/>
</g>
</svg>
